<?xml version="1.0" standalone="no"?><!DOCTYPE svg PUBLIC "-//W3C//DTD SVG 1.1//EN" "http://www.w3.org/Graphics/SVG/1.1/DTD/svg11.dtd"><svg width="100%" height="100%" viewBox="0 0 371 409" version="1.1" xmlns="http://www.w3.org/2000/svg" xmlns:xlink="http://www.w3.org/1999/xlink" xml:space="preserve" style="fill-rule:evenodd;clip-rule:evenodd;stroke-linejoin:round;stroke-miterlimit:1.41421;"><g><clipPath id="_clip1"><rect x="0" y="19.14" width="370" height="370"/></clipPath><g clip-path="url(#_clip1)"><path d="M328.177,100.494l-285.956,0l-36.998,-73.893l359.952,0l-36.998,73.893Z" style="fill:#0087ff;"/><path d="M125.332,263.687l-48.481,-96.828l217.619,0l-48.481,96.828l-120.657,0Z" style="fill:#00437f;"/><path d="M185.109,383.177l-60.069,-119.971l120.138,0l-60.069,119.971Z" style="fill:#002240;"/><path d="M328.846,99.999l-34.062,68.03l-218.345,0l-34.062,-68.03l286.469,0Z" style="fill:#0065bf;"/></g><path d="M154.182,82.446l0,-4.978l3.534,0c1.026,0 1.776,0.212 2.251,0.636c0.475,0.425 0.713,1.042 0.713,1.853c0,0.811 -0.238,1.431 -0.713,1.862c-0.475,0.431 -1.225,0.64 -2.251,0.627l-3.534,0ZM152.377,75.948l0,13.566l1.805,0l0,-5.548l4.142,0c1.368,0.013 2.403,-0.336 3.106,-1.045c0.703,-0.709 1.055,-1.697 1.055,-2.964c0,-1.267 -0.352,-2.252 -1.055,-2.955c-0.703,-0.703 -1.738,-1.054 -3.106,-1.054l-5.947,0Z" style="fill:#fff;fill-rule:nonzero;"/><path d="M164.366,79.691l0,9.823l1.615,0l0,-4.37c0,-0.633 0.063,-1.194 0.19,-1.682c0.126,-0.487 0.329,-0.902 0.608,-1.244c0.278,-0.342 0.646,-0.602 1.102,-0.779c0.456,-0.177 1.007,-0.266 1.653,-0.266l0,-1.71c-0.874,-0.025 -1.596,0.152 -2.166,0.532c-0.57,0.38 -1.052,0.969 -1.444,1.767l-0.038,0l0,-2.071l-1.52,0Z" style="fill:#fff;fill-rule:nonzero;"/><path d="M171.586,84.612c0,-0.595 0.079,-1.124 0.237,-1.587c0.158,-0.462 0.377,-0.851 0.656,-1.168c0.278,-0.317 0.604,-0.557 0.978,-0.722c0.374,-0.165 0.77,-0.247 1.188,-0.247c0.418,0 0.813,0.082 1.187,0.247c0.374,0.165 0.7,0.405 0.979,0.722c0.278,0.317 0.497,0.706 0.655,1.169c0.158,0.462 0.238,0.991 0.238,1.586c0,0.595 -0.08,1.124 -0.238,1.587c-0.158,0.462 -0.377,0.848 -0.655,1.159c-0.279,0.31 -0.605,0.547 -0.979,0.712c-0.374,0.165 -0.769,0.247 -1.187,0.247c-0.418,0 -0.814,-0.082 -1.188,-0.247c-0.374,-0.165 -0.7,-0.402 -0.978,-0.712c-0.279,-0.311 -0.498,-0.697 -0.656,-1.159c-0.158,-0.463 -0.237,-0.992 -0.237,-1.587ZM169.876,84.612c0,0.722 0.101,1.393 0.304,2.014c0.202,0.621 0.506,1.162 0.912,1.625c0.405,0.462 0.905,0.823 1.501,1.083c0.595,0.259 1.279,0.389 2.052,0.389c0.785,0 1.472,-0.13 2.061,-0.389c0.589,-0.26 1.086,-0.621 1.492,-1.083c0.405,-0.463 0.709,-1.004 0.912,-1.625c0.202,-0.621 0.304,-1.292 0.304,-2.014c0,-0.722 -0.102,-1.397 -0.304,-2.023c-0.203,-0.627 -0.507,-1.172 -0.912,-1.635c-0.406,-0.462 -0.903,-0.826 -1.492,-1.092c-0.589,-0.266 -1.276,-0.399 -2.061,-0.399c-0.773,0 -1.457,0.133 -2.052,0.399c-0.596,0.266 -1.096,0.63 -1.501,1.093c-0.406,0.462 -0.71,1.007 -0.912,1.633c-0.203,0.627 -0.304,1.302 -0.304,2.024Z" style="fill:#fff;fill-rule:nonzero;"/><path d="M187.983,82.845l1.672,0c-0.064,-0.583 -0.216,-1.086 -0.456,-1.511c-0.241,-0.424 -0.548,-0.775 -0.922,-1.054c-0.374,-0.279 -0.804,-0.485 -1.292,-0.618c-0.488,-0.133 -1.01,-0.199 -1.567,-0.199c-0.773,0 -1.451,0.136 -2.033,0.408c-0.583,0.273 -1.068,0.646 -1.454,1.121c-0.386,0.475 -0.674,1.033 -0.864,1.672c-0.19,0.64 -0.285,1.327 -0.285,2.062c0,0.735 0.098,1.409 0.294,2.023c0.196,0.615 0.488,1.144 0.874,1.587c0.386,0.443 0.868,0.785 1.444,1.026c0.576,0.241 1.238,0.361 1.986,0.361c1.254,0 2.245,-0.329 2.973,-0.988c0.728,-0.659 1.181,-1.596 1.359,-2.812l-1.653,0c-0.102,0.76 -0.377,1.349 -0.827,1.767c-0.45,0.418 -1.073,0.627 -1.871,0.627c-0.507,0 -0.944,-0.101 -1.311,-0.304c-0.368,-0.203 -0.665,-0.472 -0.893,-0.807c-0.228,-0.336 -0.396,-0.719 -0.504,-1.15c-0.108,-0.431 -0.161,-0.874 -0.161,-1.33c0,-0.494 0.05,-0.972 0.152,-1.434c0.101,-0.463 0.269,-0.871 0.503,-1.226c0.234,-0.355 0.548,-0.64 0.941,-0.855c0.392,-0.215 0.88,-0.323 1.463,-0.323c0.684,0 1.228,0.171 1.634,0.513c0.405,0.342 0.671,0.823 0.798,1.444Z" style="fill:#fff;fill-rule:nonzero;"/><path d="M198.338,83.662l-5.643,0c0.025,-0.38 0.107,-0.738 0.247,-1.074c0.139,-0.335 0.329,-0.63 0.57,-0.883c0.24,-0.253 0.528,-0.453 0.864,-0.599c0.336,-0.145 0.713,-0.218 1.131,-0.218c0.405,0 0.775,0.073 1.111,0.218c0.336,0.146 0.627,0.342 0.874,0.589c0.247,0.247 0.443,0.542 0.589,0.884c0.146,0.342 0.231,0.703 0.257,1.083ZM199.896,86.398l-1.596,0c-0.14,0.646 -0.428,1.127 -0.865,1.444c-0.437,0.317 -0.997,0.475 -1.681,0.475c-0.532,0 -0.995,-0.089 -1.387,-0.266c-0.393,-0.177 -0.716,-0.415 -0.969,-0.712c-0.254,-0.298 -0.437,-0.64 -0.551,-1.026c-0.114,-0.387 -0.165,-0.795 -0.152,-1.226l7.353,0c0.025,-0.595 -0.029,-1.222 -0.162,-1.881c-0.133,-0.659 -0.374,-1.267 -0.722,-1.824c-0.348,-0.557 -0.811,-1.016 -1.387,-1.377c-0.576,-0.361 -1.301,-0.542 -2.175,-0.542c-0.672,0 -1.289,0.127 -1.853,0.38c-0.564,0.253 -1.051,0.608 -1.463,1.064c-0.412,0.456 -0.731,0.994 -0.959,1.615c-0.228,0.621 -0.342,1.305 -0.342,2.052c0.025,0.747 0.136,1.438 0.332,2.071c0.196,0.633 0.491,1.178 0.884,1.634c0.392,0.456 0.877,0.811 1.453,1.064c0.576,0.253 1.257,0.38 2.043,0.38c1.114,0 2.039,-0.279 2.774,-0.836c0.734,-0.557 1.209,-1.387 1.425,-2.489Z" style="fill:#fff;fill-rule:nonzero;"/><path d="M202.708,86.417l-1.615,0c0.025,0.608 0.152,1.124 0.38,1.548c0.228,0.425 0.532,0.767 0.912,1.026c0.38,0.26 0.817,0.447 1.311,0.561c0.494,0.114 1.013,0.171 1.558,0.171c0.494,0 0.991,-0.048 1.491,-0.143c0.5,-0.095 0.95,-0.262 1.349,-0.503c0.399,-0.241 0.722,-0.557 0.969,-0.95c0.247,-0.393 0.371,-0.887 0.371,-1.482c0,-0.469 -0.092,-0.861 -0.276,-1.178c-0.184,-0.317 -0.424,-0.58 -0.722,-0.789c-0.298,-0.209 -0.64,-0.376 -1.026,-0.503c-0.386,-0.127 -0.782,-0.234 -1.187,-0.323c-0.38,-0.089 -0.76,-0.174 -1.14,-0.257c-0.38,-0.082 -0.722,-0.183 -1.026,-0.304c-0.304,-0.12 -0.555,-0.272 -0.751,-0.456c-0.196,-0.183 -0.294,-0.414 -0.294,-0.693c0,-0.253 0.063,-0.459 0.19,-0.618c0.126,-0.158 0.291,-0.285 0.494,-0.38c0.202,-0.095 0.427,-0.161 0.674,-0.199c0.247,-0.038 0.491,-0.057 0.732,-0.057c0.266,0 0.528,0.028 0.788,0.085c0.26,0.057 0.497,0.149 0.713,0.276c0.215,0.127 0.392,0.294 0.532,0.503c0.139,0.209 0.221,0.472 0.247,0.789l1.615,0c-0.038,-0.595 -0.165,-1.093 -0.38,-1.492c-0.216,-0.399 -0.504,-0.715 -0.865,-0.95c-0.361,-0.234 -0.776,-0.399 -1.244,-0.494c-0.469,-0.095 -0.982,-0.142 -1.539,-0.142c-0.431,0 -0.865,0.054 -1.302,0.161c-0.437,0.108 -0.83,0.273 -1.178,0.494c-0.348,0.222 -0.633,0.51 -0.855,0.865c-0.222,0.355 -0.332,0.779 -0.332,1.273c0,0.633 0.158,1.127 0.475,1.482c0.316,0.355 0.712,0.63 1.187,0.826c0.475,0.197 0.991,0.349 1.549,0.457c0.557,0.107 1.073,0.228 1.548,0.361c0.475,0.133 0.871,0.307 1.188,0.522c0.316,0.215 0.475,0.532 0.475,0.95c0,0.304 -0.076,0.554 -0.228,0.751c-0.152,0.196 -0.346,0.345 -0.58,0.446c-0.234,0.101 -0.491,0.171 -0.769,0.209c-0.279,0.038 -0.545,0.057 -0.798,0.057c-0.33,0 -0.65,-0.032 -0.96,-0.095c-0.31,-0.063 -0.589,-0.168 -0.836,-0.314c-0.247,-0.145 -0.446,-0.342 -0.598,-0.589c-0.152,-0.247 -0.235,-0.547 -0.247,-0.902Z" style="fill:#fff;fill-rule:nonzero;"/><path d="M212.208,86.417l-1.615,0c0.025,0.608 0.152,1.124 0.38,1.548c0.228,0.425 0.532,0.767 0.912,1.026c0.38,0.26 0.817,0.447 1.311,0.561c0.494,0.114 1.013,0.171 1.558,0.171c0.494,0 0.991,-0.048 1.491,-0.143c0.5,-0.095 0.95,-0.262 1.349,-0.503c0.399,-0.241 0.722,-0.557 0.969,-0.95c0.247,-0.393 0.371,-0.887 0.371,-1.482c0,-0.469 -0.092,-0.861 -0.276,-1.178c-0.184,-0.317 -0.424,-0.58 -0.722,-0.789c-0.298,-0.209 -0.64,-0.376 -1.026,-0.503c-0.386,-0.127 -0.782,-0.234 -1.187,-0.323c-0.38,-0.089 -0.76,-0.174 -1.14,-0.257c-0.38,-0.082 -0.722,-0.183 -1.026,-0.304c-0.304,-0.12 -0.555,-0.272 -0.751,-0.456c-0.196,-0.183 -0.294,-0.414 -0.294,-0.693c0,-0.253 0.063,-0.459 0.19,-0.618c0.126,-0.158 0.291,-0.285 0.494,-0.38c0.202,-0.095 0.427,-0.161 0.674,-0.199c0.247,-0.038 0.491,-0.057 0.732,-0.057c0.266,0 0.528,0.028 0.788,0.085c0.26,0.057 0.497,0.149 0.713,0.276c0.215,0.127 0.392,0.294 0.532,0.503c0.139,0.209 0.221,0.472 0.247,0.789l1.615,0c-0.038,-0.595 -0.165,-1.093 -0.38,-1.492c-0.216,-0.399 -0.504,-0.715 -0.865,-0.95c-0.361,-0.234 -0.776,-0.399 -1.244,-0.494c-0.469,-0.095 -0.982,-0.142 -1.539,-0.142c-0.431,0 -0.865,0.054 -1.302,0.161c-0.437,0.108 -0.83,0.273 -1.178,0.494c-0.348,0.222 -0.633,0.51 -0.855,0.865c-0.222,0.355 -0.332,0.779 -0.332,1.273c0,0.633 0.158,1.127 0.475,1.482c0.316,0.355 0.712,0.63 1.187,0.826c0.475,0.197 0.991,0.349 1.549,0.457c0.557,0.107 1.073,0.228 1.548,0.361c0.475,0.133 0.871,0.307 1.188,0.522c0.316,0.215 0.475,0.532 0.475,0.95c0,0.304 -0.076,0.554 -0.228,0.751c-0.152,0.196 -0.346,0.345 -0.58,0.446c-0.234,0.101 -0.491,0.171 -0.769,0.209c-0.279,0.038 -0.545,0.057 -0.798,0.057c-0.33,0 -0.65,-0.032 -0.96,-0.095c-0.31,-0.063 -0.589,-0.168 -0.836,-0.314c-0.247,-0.145 -0.446,-0.342 -0.598,-0.589c-0.152,-0.247 -0.235,-0.547 -0.247,-0.902Z" style="fill:#fff;fill-rule:nonzero;"/><path d="M125.501,153.244l0,-10.526l3.04,0c0.836,0 1.539,0.117 2.109,0.352c0.57,0.234 1.036,0.576 1.397,1.026c0.361,0.449 0.62,0.994 0.779,1.633c0.158,0.64 0.237,1.365 0.237,2.176c0,0.836 -0.085,1.549 -0.256,2.138c-0.171,0.589 -0.39,1.079 -0.656,1.472c-0.266,0.393 -0.567,0.703 -0.902,0.931c-0.336,0.228 -0.675,0.402 -1.017,0.522c-0.342,0.121 -0.665,0.197 -0.969,0.228c-0.304,0.032 -0.557,0.048 -0.76,0.048l-3.002,0ZM123.696,141.198l0,13.566l4.655,0c1.127,0 2.103,-0.158 2.926,-0.475c0.823,-0.317 1.501,-0.776 2.033,-1.378c0.532,-0.601 0.925,-1.342 1.178,-2.223c0.253,-0.88 0.38,-1.89 0.38,-3.03c0,-2.179 -0.564,-3.8 -1.691,-4.864c-1.127,-1.064 -2.736,-1.596 -4.826,-1.596l-4.655,0Z" style="fill:#fff;fill-rule:nonzero;"/><path d="M143.627,148.912l-5.643,0c0.025,-0.38 0.108,-0.738 0.247,-1.073c0.139,-0.336 0.329,-0.631 0.57,-0.884c0.241,-0.253 0.529,-0.453 0.865,-0.599c0.335,-0.145 0.712,-0.218 1.13,-0.218c0.405,0 0.776,0.073 1.112,0.218c0.335,0.146 0.627,0.343 0.874,0.589c0.247,0.247 0.443,0.542 0.589,0.884c0.145,0.342 0.231,0.703 0.256,1.083ZM145.185,151.648l-1.596,0c-0.139,0.646 -0.427,1.127 -0.864,1.444c-0.437,0.317 -0.998,0.475 -1.682,0.475c-0.532,0 -0.994,-0.089 -1.387,-0.266c-0.393,-0.177 -0.716,-0.415 -0.969,-0.712c-0.253,-0.298 -0.437,-0.64 -0.551,-1.026c-0.114,-0.387 -0.165,-0.795 -0.152,-1.226l7.353,0c0.025,-0.595 -0.028,-1.222 -0.161,-1.881c-0.133,-0.659 -0.374,-1.267 -0.722,-1.824c-0.349,-0.557 -0.811,-1.016 -1.387,-1.377c-0.577,-0.361 -1.302,-0.542 -2.176,-0.542c-0.671,0 -1.289,0.127 -1.852,0.38c-0.564,0.253 -1.052,0.608 -1.463,1.064c-0.412,0.456 -0.732,0.994 -0.96,1.615c-0.228,0.621 -0.342,1.305 -0.342,2.052c0.025,0.747 0.136,1.438 0.333,2.071c0.196,0.633 0.49,1.178 0.883,1.634c0.393,0.456 0.877,0.811 1.454,1.064c0.576,0.253 1.257,0.38 2.042,0.38c1.115,0 2.039,-0.279 2.774,-0.836c0.735,-0.557 1.21,-1.387 1.425,-2.489Z" style="fill:#fff;fill-rule:nonzero;"/><path d="M147.997,151.667l-1.615,0c0.025,0.608 0.152,1.124 0.38,1.549c0.228,0.424 0.532,0.766 0.912,1.025c0.38,0.26 0.817,0.447 1.311,0.561c0.494,0.114 1.013,0.171 1.558,0.171c0.494,0 0.991,-0.048 1.492,-0.143c0.5,-0.095 0.95,-0.262 1.349,-0.503c0.399,-0.241 0.722,-0.557 0.969,-0.95c0.247,-0.393 0.37,-0.887 0.37,-1.482c0,-0.469 -0.092,-0.861 -0.275,-1.178c-0.184,-0.317 -0.425,-0.58 -0.722,-0.789c-0.298,-0.209 -0.64,-0.376 -1.026,-0.503c-0.387,-0.127 -0.783,-0.234 -1.188,-0.323c-0.38,-0.089 -0.76,-0.174 -1.14,-0.257c-0.38,-0.082 -0.722,-0.183 -1.026,-0.304c-0.304,-0.12 -0.554,-0.272 -0.75,-0.456c-0.197,-0.183 -0.295,-0.414 -0.295,-0.693c0,-0.253 0.063,-0.459 0.19,-0.618c0.127,-0.158 0.291,-0.285 0.494,-0.38c0.203,-0.095 0.428,-0.161 0.675,-0.199c0.247,-0.038 0.49,-0.057 0.731,-0.057c0.266,0 0.529,0.028 0.789,0.085c0.259,0.057 0.497,0.149 0.712,0.276c0.215,0.127 0.393,0.294 0.532,0.503c0.139,0.209 0.222,0.472 0.247,0.789l1.615,0c-0.038,-0.595 -0.165,-1.093 -0.38,-1.492c-0.215,-0.399 -0.503,-0.715 -0.864,-0.95c-0.361,-0.234 -0.776,-0.399 -1.245,-0.494c-0.469,-0.095 -0.982,-0.142 -1.539,-0.142c-0.431,0 -0.864,0.054 -1.301,0.161c-0.437,0.108 -0.83,0.273 -1.178,0.494c-0.349,0.222 -0.634,0.51 -0.855,0.865c-0.222,0.355 -0.333,0.779 -0.333,1.273c0,0.633 0.158,1.127 0.475,1.482c0.317,0.355 0.713,0.63 1.188,0.826c0.475,0.197 0.991,0.349 1.548,0.456c0.557,0.108 1.074,0.228 1.549,0.361c0.475,0.133 0.87,0.308 1.187,0.523c0.317,0.215 0.475,0.532 0.475,0.95c0,0.304 -0.076,0.554 -0.228,0.75c-0.152,0.197 -0.345,0.346 -0.579,0.447c-0.235,0.101 -0.491,0.171 -0.77,0.209c-0.279,0.038 -0.545,0.057 -0.798,0.057c-0.329,0 -0.649,-0.032 -0.959,-0.095c-0.311,-0.063 -0.589,-0.168 -0.836,-0.314c-0.247,-0.145 -0.447,-0.342 -0.599,-0.589c-0.152,-0.247 -0.234,-0.547 -0.247,-0.902Z" style="fill:#fff;fill-rule:nonzero;"/><path d="M158.219,143.174l0,-1.976l-1.615,0l0,1.976l1.615,0ZM156.604,144.941l0,9.823l1.615,0l0,-9.823l-1.615,0Z" style="fill:#fff;fill-rule:nonzero;"/><path d="M169.201,153.928l0,-8.987l-1.52,0l0,1.406l-0.019,0c-0.291,-0.545 -0.697,-0.953 -1.216,-1.226c-0.519,-0.272 -1.089,-0.408 -1.71,-0.408c-0.849,0 -1.564,0.161 -2.147,0.484c-0.583,0.323 -1.051,0.735 -1.406,1.235c-0.355,0.501 -0.608,1.058 -0.76,1.672c-0.152,0.615 -0.228,1.213 -0.228,1.796c0,0.671 0.092,1.308 0.276,1.909c0.183,0.602 0.459,1.128 0.826,1.577c0.367,0.45 0.823,0.808 1.368,1.074c0.545,0.266 1.184,0.399 1.919,0.399c0.633,0 1.232,-0.143 1.796,-0.428c0.563,-0.285 0.984,-0.731 1.263,-1.339l0.038,0l0,0.646c0,0.545 -0.054,1.045 -0.161,1.501c-0.108,0.456 -0.282,0.845 -0.523,1.168c-0.241,0.323 -0.545,0.577 -0.912,0.76c-0.367,0.184 -0.817,0.276 -1.349,0.276c-0.266,0 -0.545,-0.029 -0.836,-0.086c-0.291,-0.057 -0.56,-0.148 -0.807,-0.275c-0.247,-0.127 -0.456,-0.291 -0.627,-0.494c-0.171,-0.203 -0.263,-0.45 -0.276,-0.741l-1.615,0c0.025,0.532 0.165,0.982 0.418,1.349c0.253,0.367 0.573,0.665 0.96,0.893c0.386,0.228 0.817,0.393 1.292,0.494c0.475,0.101 0.94,0.152 1.396,0.152c1.571,0 2.723,-0.399 3.458,-1.197c0.735,-0.798 1.102,-2.001 1.102,-3.61ZM164.679,153.453c-0.532,0 -0.975,-0.111 -1.33,-0.333c-0.355,-0.221 -0.64,-0.512 -0.855,-0.874c-0.215,-0.361 -0.367,-0.763 -0.456,-1.206c-0.089,-0.443 -0.133,-0.887 -0.133,-1.33c0,-0.469 0.054,-0.918 0.162,-1.349c0.107,-0.431 0.278,-0.811 0.513,-1.14c0.234,-0.329 0.535,-0.592 0.902,-0.789c0.367,-0.196 0.811,-0.294 1.33,-0.294c0.507,0 0.937,0.101 1.292,0.304c0.355,0.203 0.643,0.472 0.865,0.807c0.221,0.336 0.383,0.713 0.484,1.131c0.101,0.418 0.152,0.842 0.152,1.273c0,0.456 -0.054,0.912 -0.161,1.368c-0.108,0.456 -0.276,0.864 -0.504,1.225c-0.228,0.362 -0.529,0.653 -0.902,0.874c-0.374,0.222 -0.827,0.333 -1.359,0.333Z" style="fill:#fff;fill-rule:nonzero;"/><path d="M171.633,144.941l0,9.823l1.615,0l0,-5.548c0,-0.443 0.06,-0.852 0.181,-1.226c0.12,-0.373 0.3,-0.699 0.541,-0.978c0.241,-0.279 0.542,-0.494 0.903,-0.646c0.361,-0.152 0.788,-0.228 1.282,-0.228c0.621,0 1.108,0.177 1.463,0.532c0.355,0.355 0.532,0.836 0.532,1.444l0,6.65l1.615,0l0,-6.46c0,-0.532 -0.054,-1.016 -0.161,-1.453c-0.108,-0.438 -0.295,-0.814 -0.561,-1.131c-0.266,-0.317 -0.614,-0.564 -1.045,-0.741c-0.431,-0.177 -0.969,-0.266 -1.615,-0.266c-1.457,0 -2.521,0.595 -3.192,1.786l-0.038,0l0,-1.558l-1.52,0Z" style="fill:#fff;fill-rule:nonzero;"/><path d="M189.55,147.696l0,-4.978l3.534,0c1.026,0 1.777,0.212 2.252,0.636c0.475,0.425 0.712,1.042 0.712,1.853c0,0.811 -0.237,1.431 -0.712,1.862c-0.475,0.431 -1.226,0.64 -2.252,0.627l-3.534,0ZM187.745,141.198l0,13.566l1.805,0l0,-5.548l4.142,0c1.368,0.013 2.404,-0.336 3.107,-1.045c0.703,-0.709 1.054,-1.697 1.054,-2.964c0,-1.267 -0.351,-2.252 -1.054,-2.955c-0.703,-0.702 -1.739,-1.054 -3.107,-1.054l-5.947,0Z" style="fill:#fff;fill-rule:nonzero;"/><path d="M208.493,154.726c-0.279,0.165 -0.665,0.247 -1.159,0.247c-0.418,0 -0.75,-0.117 -0.997,-0.352c-0.247,-0.234 -0.371,-0.617 -0.371,-1.149c-0.443,0.532 -0.959,0.915 -1.548,1.149c-0.589,0.235 -1.226,0.352 -1.91,0.352c-0.443,0 -0.864,-0.051 -1.263,-0.152c-0.399,-0.101 -0.745,-0.26 -1.036,-0.475c-0.291,-0.215 -0.522,-0.497 -0.693,-0.846c-0.171,-0.348 -0.257,-0.769 -0.257,-1.263c0,-0.557 0.095,-1.013 0.285,-1.368c0.19,-0.355 0.44,-0.643 0.751,-0.865c0.31,-0.221 0.665,-0.389 1.064,-0.503c0.399,-0.114 0.807,-0.209 1.225,-0.285c0.443,-0.089 0.865,-0.155 1.264,-0.2c0.399,-0.044 0.75,-0.107 1.054,-0.19c0.304,-0.082 0.545,-0.202 0.722,-0.361c0.177,-0.158 0.266,-0.389 0.266,-0.693c0,-0.355 -0.066,-0.64 -0.199,-0.855c-0.133,-0.215 -0.304,-0.38 -0.513,-0.494c-0.209,-0.114 -0.444,-0.19 -0.703,-0.228c-0.26,-0.038 -0.517,-0.057 -0.77,-0.057c-0.684,0 -1.254,0.13 -1.71,0.389c-0.456,0.26 -0.703,0.751 -0.741,1.473l-1.615,0c0.025,-0.608 0.152,-1.121 0.38,-1.539c0.228,-0.418 0.532,-0.757 0.912,-1.017c0.38,-0.259 0.814,-0.446 1.302,-0.56c0.487,-0.114 1.01,-0.171 1.567,-0.171c0.443,0 0.884,0.032 1.321,0.095c0.437,0.063 0.832,0.193 1.187,0.389c0.355,0.197 0.64,0.472 0.855,0.827c0.215,0.355 0.323,0.817 0.323,1.387l0,5.054c0,0.38 0.022,0.659 0.067,0.836c0.044,0.177 0.193,0.266 0.446,0.266c0.139,0 0.304,-0.032 0.494,-0.095l0,1.254ZM205.871,149.691c-0.203,0.152 -0.469,0.263 -0.798,0.333c-0.329,0.069 -0.674,0.126 -1.035,0.171c-0.361,0.044 -0.726,0.094 -1.093,0.151c-0.367,0.058 -0.697,0.149 -0.988,0.276c-0.291,0.127 -0.529,0.307 -0.712,0.541c-0.184,0.235 -0.276,0.555 -0.276,0.96c0,0.266 0.054,0.491 0.162,0.674c0.107,0.184 0.247,0.333 0.418,0.447c0.171,0.114 0.37,0.196 0.598,0.247c0.228,0.051 0.469,0.076 0.722,0.076c0.532,0 0.988,-0.073 1.368,-0.219c0.38,-0.145 0.69,-0.329 0.931,-0.551c0.241,-0.221 0.418,-0.462 0.532,-0.722c0.114,-0.259 0.171,-0.503 0.171,-0.731l0,-1.653Z" style="fill:#fff;fill-rule:nonzero;"/><path d="M212.236,144.941l0,-2.945l-1.615,0l0,2.945l-1.672,0l0,1.425l1.672,0l0,6.251c0,0.456 0.044,0.823 0.133,1.102c0.089,0.279 0.225,0.494 0.409,0.646c0.183,0.152 0.424,0.256 0.722,0.313c0.297,0.058 0.655,0.086 1.073,0.086l1.235,0l0,-1.425l-0.741,0c-0.253,0 -0.459,-0.01 -0.617,-0.029c-0.159,-0.019 -0.282,-0.06 -0.371,-0.123c-0.089,-0.063 -0.149,-0.152 -0.18,-0.266c-0.032,-0.114 -0.048,-0.266 -0.048,-0.456l0,-6.099l1.957,0l0,-1.425l-1.957,0Z" style="fill:#fff;fill-rule:nonzero;"/><path d="M218.221,144.941l0,-2.945l-1.615,0l0,2.945l-1.672,0l0,1.425l1.672,0l0,6.251c0,0.456 0.044,0.823 0.133,1.102c0.089,0.279 0.225,0.494 0.409,0.646c0.183,0.152 0.424,0.256 0.722,0.313c0.297,0.058 0.655,0.086 1.073,0.086l1.235,0l0,-1.425l-0.741,0c-0.253,0 -0.459,-0.01 -0.617,-0.029c-0.159,-0.019 -0.282,-0.06 -0.371,-0.123c-0.089,-0.063 -0.149,-0.152 -0.18,-0.266c-0.032,-0.114 -0.048,-0.266 -0.048,-0.456l0,-6.099l1.957,0l0,-1.425l-1.957,0Z" style="fill:#fff;fill-rule:nonzero;"/><path d="M228.785,148.912l-5.643,0c0.025,-0.38 0.108,-0.738 0.247,-1.073c0.139,-0.336 0.329,-0.631 0.57,-0.884c0.241,-0.253 0.529,-0.453 0.865,-0.599c0.335,-0.145 0.712,-0.218 1.13,-0.218c0.405,0 0.776,0.073 1.112,0.218c0.335,0.146 0.627,0.343 0.874,0.589c0.247,0.247 0.443,0.542 0.589,0.884c0.145,0.342 0.231,0.703 0.256,1.083ZM230.343,151.648l-1.596,0c-0.139,0.646 -0.427,1.127 -0.864,1.444c-0.437,0.317 -0.998,0.475 -1.682,0.475c-0.532,0 -0.994,-0.089 -1.387,-0.266c-0.393,-0.177 -0.716,-0.415 -0.969,-0.712c-0.253,-0.298 -0.437,-0.64 -0.551,-1.026c-0.114,-0.387 -0.165,-0.795 -0.152,-1.226l7.353,0c0.025,-0.595 -0.028,-1.222 -0.161,-1.881c-0.133,-0.659 -0.374,-1.267 -0.722,-1.824c-0.349,-0.557 -0.811,-1.016 -1.387,-1.377c-0.577,-0.361 -1.302,-0.542 -2.176,-0.542c-0.671,0 -1.289,0.127 -1.852,0.38c-0.564,0.253 -1.052,0.608 -1.463,1.064c-0.412,0.456 -0.732,0.994 -0.96,1.615c-0.228,0.621 -0.342,1.305 -0.342,2.052c0.025,0.747 0.136,1.438 0.333,2.071c0.196,0.633 0.49,1.178 0.883,1.634c0.393,0.456 0.877,0.811 1.454,1.064c0.576,0.253 1.257,0.38 2.042,0.38c1.115,0 2.039,-0.279 2.774,-0.836c0.735,-0.557 1.21,-1.387 1.425,-2.489Z" style="fill:#fff;fill-rule:nonzero;"/><path d="M232.11,144.941l0,9.823l1.615,0l0,-4.37c0,-0.633 0.063,-1.194 0.19,-1.682c0.127,-0.487 0.329,-0.902 0.608,-1.244c0.279,-0.342 0.646,-0.602 1.102,-0.779c0.456,-0.177 1.007,-0.266 1.653,-0.266l0,-1.71c-0.874,-0.025 -1.596,0.152 -2.166,0.532c-0.57,0.38 -1.051,0.969 -1.444,1.767l-0.038,0l0,-2.071l-1.52,0Z" style="fill:#fff;fill-rule:nonzero;"/><path d="M238.836,144.941l0,9.823l1.615,0l0,-5.548c0,-0.443 0.06,-0.852 0.181,-1.226c0.12,-0.373 0.3,-0.699 0.541,-0.978c0.241,-0.279 0.542,-0.494 0.903,-0.646c0.361,-0.152 0.788,-0.228 1.282,-0.228c0.621,0 1.108,0.177 1.463,0.532c0.355,0.355 0.532,0.836 0.532,1.444l0,6.65l1.615,0l0,-6.46c0,-0.532 -0.054,-1.016 -0.161,-1.453c-0.108,-0.438 -0.295,-0.814 -0.561,-1.131c-0.266,-0.317 -0.614,-0.564 -1.045,-0.741c-0.431,-0.177 -0.969,-0.266 -1.615,-0.266c-1.457,0 -2.521,0.595 -3.192,1.786l-0.038,0l0,-1.558l-1.52,0Z" style="fill:#fff;fill-rule:nonzero;"/><path d="M157.478,206.448l0,13.566l8.987,0l0,-1.52l-7.182,0l0,-12.046l-1.805,0Z" style="fill:#fff;fill-rule:nonzero;"/><path d="M169.486,208.424l0,-1.976l-1.615,0l0,1.976l1.615,0ZM167.871,210.191l0,9.823l1.615,0l0,-9.823l-1.615,0Z" style="fill:#fff;fill-rule:nonzero;"/><path d="M172.051,206.448l0,13.566l1.615,0l0,-1.311l0.038,0c0.177,0.291 0.396,0.535 0.656,0.732c0.259,0.196 0.535,0.351 0.826,0.465c0.291,0.114 0.586,0.196 0.884,0.247c0.297,0.051 0.566,0.076 0.807,0.076c0.747,0 1.403,-0.133 1.967,-0.399c0.563,-0.266 1.032,-0.63 1.406,-1.093c0.373,-0.462 0.652,-1.003 0.836,-1.624c0.183,-0.621 0.275,-1.279 0.275,-1.976c0,-0.697 -0.095,-1.355 -0.285,-1.976c-0.19,-0.621 -0.472,-1.169 -0.845,-1.644c-0.374,-0.475 -0.843,-0.851 -1.406,-1.13c-0.564,-0.279 -1.226,-0.418 -1.986,-0.418c-0.684,0 -1.311,0.123 -1.881,0.37c-0.57,0.247 -0.988,0.643 -1.254,1.188l-0.038,0l0,-5.073l-1.615,0ZM179.651,215.017c0,0.481 -0.051,0.95 -0.152,1.406c-0.101,0.456 -0.266,0.861 -0.494,1.216c-0.228,0.355 -0.529,0.64 -0.902,0.855c-0.374,0.215 -0.84,0.323 -1.397,0.323c-0.557,0 -1.032,-0.105 -1.425,-0.314c-0.393,-0.209 -0.712,-0.484 -0.959,-0.826c-0.247,-0.342 -0.428,-0.738 -0.542,-1.188c-0.114,-0.449 -0.171,-0.915 -0.171,-1.396c0,-0.456 0.054,-0.906 0.162,-1.349c0.107,-0.443 0.281,-0.839 0.522,-1.188c0.241,-0.348 0.551,-0.63 0.931,-0.845c0.38,-0.215 0.842,-0.323 1.387,-0.323c0.519,0 0.972,0.101 1.359,0.304c0.386,0.203 0.703,0.475 0.95,0.817c0.247,0.342 0.43,0.731 0.551,1.168c0.12,0.437 0.18,0.884 0.18,1.34Z" style="fill:#fff;fill-rule:nonzero;"/><path d="M183.204,210.191l0,9.823l1.615,0l0,-4.37c0,-0.633 0.063,-1.194 0.19,-1.682c0.127,-0.487 0.329,-0.902 0.608,-1.244c0.279,-0.342 0.646,-0.602 1.102,-0.779c0.456,-0.177 1.007,-0.266 1.653,-0.266l0,-1.71c-0.874,-0.025 -1.596,0.152 -2.166,0.532c-0.57,0.38 -1.051,0.969 -1.444,1.767l-0.038,0l0,-2.071l-1.52,0Z" style="fill:#fff;fill-rule:nonzero;"/><path d="M198.29,219.976c-0.279,0.165 -0.665,0.247 -1.159,0.247c-0.418,0 -0.75,-0.117 -0.997,-0.352c-0.247,-0.234 -0.371,-0.617 -0.371,-1.149c-0.443,0.532 -0.959,0.915 -1.548,1.149c-0.589,0.235 -1.226,0.352 -1.91,0.352c-0.443,0 -0.864,-0.051 -1.263,-0.152c-0.399,-0.101 -0.745,-0.26 -1.036,-0.475c-0.291,-0.215 -0.522,-0.497 -0.693,-0.846c-0.171,-0.348 -0.257,-0.769 -0.257,-1.263c0,-0.557 0.095,-1.013 0.285,-1.368c0.19,-0.355 0.44,-0.643 0.751,-0.865c0.31,-0.221 0.665,-0.389 1.064,-0.503c0.399,-0.114 0.807,-0.209 1.225,-0.285c0.443,-0.089 0.865,-0.155 1.264,-0.2c0.399,-0.044 0.75,-0.107 1.054,-0.19c0.304,-0.082 0.545,-0.202 0.722,-0.361c0.177,-0.158 0.266,-0.389 0.266,-0.693c0,-0.355 -0.066,-0.64 -0.199,-0.855c-0.133,-0.215 -0.304,-0.38 -0.513,-0.494c-0.209,-0.114 -0.444,-0.19 -0.703,-0.228c-0.26,-0.038 -0.517,-0.057 -0.77,-0.057c-0.684,0 -1.254,0.13 -1.71,0.389c-0.456,0.26 -0.703,0.751 -0.741,1.473l-1.615,0c0.025,-0.608 0.152,-1.121 0.38,-1.539c0.228,-0.418 0.532,-0.757 0.912,-1.017c0.38,-0.259 0.814,-0.446 1.302,-0.56c0.487,-0.114 1.01,-0.171 1.567,-0.171c0.443,0 0.884,0.032 1.321,0.095c0.437,0.063 0.832,0.193 1.187,0.389c0.355,0.197 0.64,0.472 0.855,0.827c0.215,0.355 0.323,0.817 0.323,1.387l0,5.054c0,0.38 0.022,0.659 0.067,0.836c0.044,0.177 0.193,0.266 0.446,0.266c0.139,0 0.304,-0.032 0.494,-0.095l0,1.254ZM195.668,214.941c-0.203,0.152 -0.469,0.263 -0.798,0.333c-0.329,0.069 -0.674,0.126 -1.035,0.171c-0.361,0.044 -0.726,0.094 -1.093,0.151c-0.367,0.058 -0.697,0.149 -0.988,0.276c-0.291,0.127 -0.529,0.307 -0.712,0.541c-0.184,0.235 -0.276,0.555 -0.276,0.96c0,0.266 0.054,0.491 0.162,0.674c0.107,0.184 0.247,0.333 0.418,0.447c0.171,0.114 0.37,0.196 0.598,0.247c0.228,0.051 0.469,0.076 0.722,0.076c0.532,0 0.988,-0.073 1.368,-0.219c0.38,-0.145 0.69,-0.329 0.931,-0.551c0.241,-0.221 0.418,-0.462 0.532,-0.722c0.114,-0.259 0.171,-0.503 0.171,-0.731l0,-1.653Z" style="fill:#fff;fill-rule:nonzero;"/><path d="M199.734,210.191l0,9.823l1.615,0l0,-4.37c0,-0.633 0.063,-1.194 0.19,-1.682c0.127,-0.487 0.329,-0.902 0.608,-1.244c0.279,-0.342 0.646,-0.602 1.102,-0.779c0.456,-0.177 1.007,-0.266 1.653,-0.266l0,-1.71c-0.874,-0.025 -1.596,0.152 -2.166,0.532c-0.57,0.38 -1.051,0.969 -1.444,1.767l-0.038,0l0,-2.071l-1.52,0Z" style="fill:#fff;fill-rule:nonzero;"/><path d="M209.975,221.325c-0.19,0.481 -0.377,0.887 -0.56,1.216c-0.184,0.329 -0.387,0.598 -0.608,0.807c-0.222,0.209 -0.469,0.361 -0.741,0.457c-0.273,0.094 -0.586,0.142 -0.941,0.142c-0.19,0 -0.38,-0.013 -0.57,-0.038c-0.19,-0.025 -0.374,-0.07 -0.551,-0.133l0,-1.482c0.139,0.063 0.301,0.117 0.485,0.161c0.183,0.045 0.338,0.067 0.465,0.067c0.329,0 0.605,-0.079 0.827,-0.238c0.221,-0.158 0.389,-0.383 0.503,-0.674l0.665,-1.653l-3.895,-9.766l1.824,0l2.869,8.037l0.038,0l2.755,-8.037l1.71,0l-4.275,11.134Z" style="fill:#fff;fill-rule:nonzero;"/><path d="M174.246,247.034l2.299,-6.327l0.038,0l2.261,6.327l-4.598,0ZM175.595,239.073l-5.282,13.566l1.843,0l1.52,-4.085l5.738,0l1.482,4.085l1.995,0l-5.301,-13.566l-1.995,0Z" style="fill:#fff;fill-rule:nonzero;"/><path d="M186.026,245.571l0,-4.978l3.534,0c1.026,0 1.776,0.212 2.251,0.636c0.475,0.425 0.713,1.042 0.713,1.853c0,0.811 -0.238,1.431 -0.713,1.862c-0.475,0.431 -1.225,0.64 -2.251,0.627l-3.534,0ZM184.221,239.073l0,13.566l1.805,0l0,-5.548l4.142,0c1.368,0.013 2.403,-0.336 3.106,-1.045c0.703,-0.709 1.055,-1.697 1.055,-2.964c0,-1.267 -0.352,-2.252 -1.055,-2.955c-0.703,-0.702 -1.738,-1.054 -3.106,-1.054l-5.947,0Z" style="fill:#fff;fill-rule:nonzero;"/><rect x="196.609" y="239.073" width="1.805" height="13.566" style="fill:#fff;fill-rule:nonzero;"/><path d="M139.01,173.823l0,13.566l1.805,0l0,-6.213l6.232,0l0,-1.52l-6.232,0l0,-4.313l7.106,0l0,-1.52l-8.911,0Z" style="fill:#fff;fill-rule:nonzero;"/><path d="M149.593,177.566l0,9.823l1.615,0l0,-4.37c0,-0.633 0.063,-1.194 0.19,-1.682c0.127,-0.487 0.329,-0.902 0.608,-1.244c0.279,-0.342 0.646,-0.602 1.102,-0.779c0.456,-0.177 1.007,-0.266 1.653,-0.266l0,-1.71c-0.874,-0.025 -1.596,0.152 -2.166,0.532c-0.57,0.38 -1.051,0.969 -1.444,1.767l-0.038,0l0,-2.071l-1.52,0Z" style="fill:#fff;fill-rule:nonzero;"/><path d="M164.679,187.351c-0.279,0.165 -0.665,0.247 -1.159,0.247c-0.418,0 -0.75,-0.117 -0.997,-0.352c-0.247,-0.234 -0.371,-0.617 -0.371,-1.149c-0.443,0.532 -0.959,0.915 -1.548,1.149c-0.589,0.235 -1.226,0.352 -1.91,0.352c-0.443,0 -0.864,-0.051 -1.263,-0.152c-0.399,-0.101 -0.745,-0.26 -1.036,-0.475c-0.291,-0.215 -0.522,-0.497 -0.693,-0.846c-0.171,-0.348 -0.257,-0.769 -0.257,-1.263c0,-0.557 0.095,-1.013 0.285,-1.368c0.19,-0.355 0.44,-0.643 0.751,-0.865c0.31,-0.221 0.665,-0.389 1.064,-0.503c0.399,-0.114 0.807,-0.209 1.225,-0.285c0.443,-0.089 0.865,-0.155 1.264,-0.2c0.399,-0.044 0.75,-0.107 1.054,-0.19c0.304,-0.082 0.545,-0.202 0.722,-0.361c0.177,-0.158 0.266,-0.389 0.266,-0.693c0,-0.355 -0.066,-0.64 -0.199,-0.855c-0.133,-0.215 -0.304,-0.38 -0.513,-0.494c-0.209,-0.114 -0.444,-0.19 -0.703,-0.228c-0.26,-0.038 -0.517,-0.057 -0.77,-0.057c-0.684,0 -1.254,0.13 -1.71,0.389c-0.456,0.26 -0.703,0.751 -0.741,1.473l-1.615,0c0.025,-0.608 0.152,-1.121 0.38,-1.539c0.228,-0.418 0.532,-0.757 0.912,-1.017c0.38,-0.259 0.814,-0.446 1.302,-0.56c0.487,-0.114 1.01,-0.171 1.567,-0.171c0.443,0 0.884,0.032 1.321,0.095c0.437,0.063 0.832,0.193 1.187,0.389c0.355,0.197 0.64,0.472 0.855,0.827c0.215,0.355 0.323,0.817 0.323,1.387l0,5.054c0,0.38 0.022,0.659 0.067,0.836c0.044,0.177 0.193,0.266 0.446,0.266c0.139,0 0.304,-0.032 0.494,-0.095l0,1.254ZM162.057,182.316c-0.203,0.152 -0.469,0.263 -0.798,0.333c-0.329,0.069 -0.674,0.126 -1.035,0.171c-0.361,0.044 -0.726,0.094 -1.093,0.151c-0.367,0.058 -0.697,0.149 -0.988,0.276c-0.291,0.127 -0.529,0.307 -0.712,0.541c-0.184,0.235 -0.276,0.555 -0.276,0.96c0,0.266 0.054,0.491 0.162,0.674c0.107,0.184 0.247,0.333 0.418,0.447c0.171,0.114 0.37,0.196 0.598,0.247c0.228,0.051 0.469,0.076 0.722,0.076c0.532,0 0.988,-0.073 1.368,-0.219c0.38,-0.145 0.69,-0.329 0.931,-0.551c0.241,-0.221 0.418,-0.462 0.532,-0.722c0.114,-0.259 0.171,-0.503 0.171,-0.731l0,-1.653Z" style="fill:#fff;fill-rule:nonzero;"/><path d="M166.18,177.566l0,9.823l1.615,0l0,-6.118c0,-0.19 0.048,-0.428 0.143,-0.713c0.095,-0.285 0.247,-0.56 0.456,-0.826c0.209,-0.266 0.481,-0.494 0.817,-0.684c0.335,-0.19 0.737,-0.285 1.206,-0.285c0.367,0 0.668,0.054 0.903,0.161c0.234,0.108 0.421,0.26 0.56,0.456c0.139,0.197 0.238,0.428 0.295,0.694c0.057,0.266 0.085,0.557 0.085,0.874l0,6.441l1.615,0l0,-6.118c0,-0.76 0.228,-1.368 0.684,-1.824c0.456,-0.456 1.083,-0.684 1.881,-0.684c0.393,0 0.713,0.057 0.96,0.171c0.247,0.114 0.44,0.269 0.579,0.465c0.139,0.197 0.234,0.428 0.285,0.694c0.051,0.266 0.076,0.551 0.076,0.855l0,6.441l1.615,0l0,-7.201c0,-0.507 -0.079,-0.94 -0.237,-1.301c-0.159,-0.361 -0.38,-0.656 -0.665,-0.884c-0.285,-0.228 -0.627,-0.396 -1.026,-0.504c-0.399,-0.107 -0.846,-0.161 -1.34,-0.161c-0.646,0 -1.238,0.146 -1.776,0.437c-0.539,0.291 -0.973,0.703 -1.302,1.235c-0.203,-0.608 -0.551,-1.039 -1.045,-1.292c-0.494,-0.253 -1.045,-0.38 -1.653,-0.38c-1.381,0 -2.438,0.557 -3.173,1.672l-0.038,0l0,-1.444l-1.52,0Z" style="fill:#fff;fill-rule:nonzero;"/><path d="M189.208,181.537l-5.643,0c0.025,-0.38 0.108,-0.738 0.247,-1.073c0.139,-0.336 0.329,-0.631 0.57,-0.884c0.241,-0.253 0.529,-0.453 0.865,-0.599c0.335,-0.145 0.712,-0.218 1.13,-0.218c0.405,0 0.776,0.073 1.112,0.218c0.335,0.146 0.627,0.343 0.874,0.589c0.247,0.247 0.443,0.542 0.589,0.884c0.145,0.342 0.231,0.703 0.256,1.083ZM190.766,184.273l-1.596,0c-0.139,0.646 -0.427,1.127 -0.864,1.444c-0.437,0.317 -0.998,0.475 -1.682,0.475c-0.532,0 -0.994,-0.089 -1.387,-0.266c-0.393,-0.177 -0.716,-0.415 -0.969,-0.712c-0.253,-0.298 -0.437,-0.64 -0.551,-1.026c-0.114,-0.387 -0.165,-0.795 -0.152,-1.226l7.353,0c0.025,-0.595 -0.028,-1.222 -0.161,-1.881c-0.133,-0.659 -0.374,-1.267 -0.722,-1.824c-0.349,-0.557 -0.811,-1.016 -1.387,-1.377c-0.577,-0.361 -1.302,-0.542 -2.176,-0.542c-0.671,0 -1.289,0.127 -1.852,0.38c-0.564,0.253 -1.052,0.608 -1.463,1.064c-0.412,0.456 -0.732,0.994 -0.96,1.615c-0.228,0.621 -0.342,1.305 -0.342,2.052c0.025,0.747 0.136,1.438 0.333,2.071c0.196,0.633 0.49,1.178 0.883,1.634c0.393,0.456 0.877,0.811 1.454,1.064c0.576,0.253 1.257,0.38 2.042,0.38c1.115,0 2.039,-0.279 2.774,-0.836c0.735,-0.557 1.21,-1.387 1.425,-2.489Z" style="fill:#fff;fill-rule:nonzero;"/><path d="M202.318,187.389l3.135,-9.823l-1.672,0l-2.204,8.037l-0.038,0l-2.052,-8.037l-1.767,0l-1.976,8.037l-0.038,0l-2.223,-8.037l-1.786,0l3.154,9.823l1.748,0l1.976,-7.809l0.038,0l1.995,7.809l1.71,0Z" style="fill:#fff;fill-rule:nonzero;"/><path d="M208.17,182.487c0,-0.595 0.079,-1.124 0.238,-1.586c0.158,-0.463 0.376,-0.852 0.655,-1.169c0.279,-0.317 0.605,-0.557 0.979,-0.722c0.373,-0.165 0.769,-0.247 1.187,-0.247c0.418,0 0.814,0.082 1.188,0.247c0.373,0.165 0.699,0.405 0.978,0.722c0.279,0.317 0.497,0.706 0.656,1.169c0.158,0.462 0.237,0.991 0.237,1.586c0,0.595 -0.079,1.124 -0.237,1.587c-0.159,0.462 -0.377,0.848 -0.656,1.159c-0.279,0.31 -0.605,0.547 -0.978,0.712c-0.374,0.165 -0.77,0.247 -1.188,0.247c-0.418,0 -0.814,-0.082 -1.187,-0.247c-0.374,-0.165 -0.7,-0.402 -0.979,-0.712c-0.279,-0.311 -0.497,-0.697 -0.655,-1.159c-0.159,-0.463 -0.238,-0.992 -0.238,-1.587ZM206.46,182.487c0,0.722 0.101,1.393 0.304,2.014c0.203,0.621 0.507,1.162 0.912,1.624c0.405,0.463 0.906,0.824 1.501,1.084c0.595,0.259 1.279,0.389 2.052,0.389c0.785,0 1.473,-0.13 2.062,-0.389c0.589,-0.26 1.086,-0.621 1.491,-1.084c0.405,-0.462 0.709,-1.003 0.912,-1.624c0.203,-0.621 0.304,-1.292 0.304,-2.014c0,-0.722 -0.101,-1.396 -0.304,-2.023c-0.203,-0.627 -0.507,-1.172 -0.912,-1.635c-0.405,-0.462 -0.902,-0.826 -1.491,-1.092c-0.589,-0.266 -1.277,-0.399 -2.062,-0.399c-0.773,0 -1.457,0.133 -2.052,0.399c-0.595,0.266 -1.096,0.63 -1.501,1.093c-0.405,0.462 -0.709,1.007 -0.912,1.634c-0.203,0.627 -0.304,1.301 -0.304,2.023Z" style="fill:#fff;fill-rule:nonzero;"/><path d="M217.841,177.566l0,9.823l1.615,0l0,-4.37c0,-0.633 0.063,-1.194 0.19,-1.682c0.127,-0.487 0.329,-0.902 0.608,-1.244c0.279,-0.342 0.646,-0.602 1.102,-0.779c0.456,-0.177 1.007,-0.266 1.653,-0.266l0,-1.71c-0.874,-0.025 -1.596,0.152 -2.166,0.532c-0.57,0.38 -1.051,0.969 -1.444,1.767l-0.038,0l0,-2.071l-1.52,0Z" style="fill:#fff;fill-rule:nonzero;"/><path d="M224.32,173.823l0,13.566l1.615,0l0,-3.724l1.52,-1.406l3.363,5.13l2.052,0l-4.18,-6.251l3.895,-3.572l-2.166,0l-4.484,4.294l0,-8.037l-1.615,0Z" style="fill:#fff;fill-rule:nonzero;"/><path d="M148.197,279.659l2.299,-6.327l0.038,0l2.261,6.327l-4.598,0ZM149.546,271.698l-5.282,13.566l1.843,0l1.52,-4.085l5.738,0l1.482,4.085l1.995,0l-5.301,-13.566l-1.995,0Z" style="fill:#fff;fill-rule:nonzero;"/><rect x="158.001" y="271.698" width="1.615" height="13.566" style="fill:#fff;fill-rule:nonzero;"/><path d="M170.598,284.428l0,-8.987l-1.52,0l0,1.406l-0.019,0c-0.292,-0.545 -0.697,-0.953 -1.216,-1.225c-0.52,-0.273 -1.09,-0.409 -1.71,-0.409c-0.849,0 -1.565,0.162 -2.147,0.485c-0.583,0.323 -1.052,0.734 -1.406,1.235c-0.355,0.5 -0.608,1.057 -0.76,1.672c-0.152,0.614 -0.228,1.212 -0.228,1.795c0,0.671 0.091,1.308 0.275,1.909c0.184,0.602 0.459,1.128 0.827,1.577c0.367,0.45 0.823,0.808 1.368,1.074c0.544,0.266 1.184,0.399 1.919,0.399c0.633,0 1.231,-0.143 1.795,-0.428c0.564,-0.285 0.985,-0.731 1.264,-1.339l0.038,0l0,0.646c0,0.545 -0.054,1.045 -0.162,1.501c-0.108,0.456 -0.282,0.845 -0.522,1.168c-0.241,0.323 -0.545,0.577 -0.912,0.76c-0.368,0.184 -0.817,0.276 -1.349,0.276c-0.266,0 -0.545,-0.029 -0.836,-0.086c-0.292,-0.057 -0.561,-0.148 -0.808,-0.275c-0.247,-0.127 -0.456,-0.291 -0.627,-0.494c-0.171,-0.203 -0.263,-0.45 -0.275,-0.741l-1.615,0c0.025,0.532 0.164,0.982 0.418,1.349c0.253,0.367 0.573,0.665 0.959,0.893c0.386,0.228 0.817,0.393 1.292,0.494c0.475,0.101 0.941,0.152 1.397,0.152c1.57,0 2.723,-0.399 3.458,-1.197c0.734,-0.798 1.102,-2.001 1.102,-3.61ZM166.076,283.953c-0.532,0 -0.976,-0.111 -1.33,-0.333c-0.355,-0.221 -0.64,-0.512 -0.855,-0.873c-0.216,-0.361 -0.368,-0.764 -0.456,-1.207c-0.089,-0.443 -0.133,-0.887 -0.133,-1.33c0,-0.469 0.053,-0.918 0.161,-1.349c0.108,-0.431 0.279,-0.811 0.513,-1.14c0.234,-0.329 0.535,-0.592 0.903,-0.789c0.367,-0.196 0.81,-0.294 1.33,-0.294c0.506,0 0.937,0.101 1.292,0.304c0.354,0.203 0.642,0.472 0.864,0.807c0.222,0.336 0.383,0.713 0.485,1.131c0.101,0.418 0.152,0.842 0.152,1.273c0,0.456 -0.054,0.912 -0.162,1.368c-0.108,0.456 -0.275,0.864 -0.503,1.225c-0.228,0.361 -0.529,0.653 -0.903,0.874c-0.374,0.222 -0.826,0.333 -1.358,0.333Z" style="fill:#fff;fill-rule:nonzero;"/><path d="M174.208,280.362c0,-0.595 0.079,-1.124 0.237,-1.587c0.158,-0.462 0.377,-0.851 0.656,-1.168c0.278,-0.317 0.604,-0.557 0.978,-0.722c0.374,-0.165 0.77,-0.247 1.188,-0.247c0.418,0 0.813,0.082 1.187,0.247c0.374,0.165 0.7,0.405 0.979,0.722c0.278,0.317 0.497,0.706 0.655,1.168c0.158,0.463 0.238,0.992 0.238,1.587c0,0.595 -0.08,1.124 -0.238,1.587c-0.158,0.462 -0.377,0.848 -0.655,1.159c-0.279,0.31 -0.605,0.547 -0.979,0.712c-0.374,0.165 -0.769,0.247 -1.187,0.247c-0.418,0 -0.814,-0.082 -1.188,-0.247c-0.374,-0.165 -0.7,-0.402 -0.978,-0.712c-0.279,-0.311 -0.498,-0.697 -0.656,-1.159c-0.158,-0.463 -0.237,-0.992 -0.237,-1.587ZM172.498,280.362c0,0.722 0.101,1.393 0.304,2.014c0.202,0.621 0.506,1.162 0.912,1.624c0.405,0.463 0.905,0.824 1.501,1.083c0.595,0.26 1.279,0.39 2.052,0.39c0.785,0 1.472,-0.13 2.061,-0.39c0.589,-0.259 1.086,-0.62 1.492,-1.083c0.405,-0.462 0.709,-1.003 0.912,-1.624c0.202,-0.621 0.304,-1.292 0.304,-2.014c0,-0.722 -0.102,-1.397 -0.304,-2.024c-0.203,-0.627 -0.507,-1.171 -0.912,-1.634c-0.406,-0.462 -0.903,-0.826 -1.492,-1.092c-0.589,-0.266 -1.276,-0.399 -2.061,-0.399c-0.773,0 -1.457,0.133 -2.052,0.399c-0.596,0.266 -1.096,0.63 -1.501,1.092c-0.406,0.463 -0.71,1.007 -0.912,1.635c-0.203,0.627 -0.304,1.301 -0.304,2.023Z" style="fill:#fff;fill-rule:nonzero;"/><path d="M183.879,275.441l0,9.823l1.615,0l0,-4.37c0,-0.633 0.063,-1.194 0.19,-1.681c0.126,-0.488 0.329,-0.903 0.608,-1.245c0.278,-0.342 0.646,-0.602 1.102,-0.779c0.456,-0.177 1.007,-0.266 1.653,-0.266l0,-1.71c-0.874,-0.025 -1.596,0.152 -2.166,0.532c-0.57,0.38 -1.052,0.969 -1.444,1.767l-0.038,0l0,-2.071l-1.52,0Z" style="fill:#fff;fill-rule:nonzero;"/><path d="M191.973,273.674l0,-1.976l-1.615,0l0,1.976l1.615,0ZM190.358,275.441l0,9.823l1.615,0l0,-9.823l-1.615,0Z" style="fill:#fff;fill-rule:nonzero;"/><path d="M196.723,275.441l0,-2.945l-1.615,0l0,2.945l-1.672,0l0,1.425l1.672,0l0,6.251c0,0.456 0.044,0.823 0.133,1.102c0.088,0.279 0.224,0.494 0.408,0.646c0.184,0.152 0.424,0.257 0.722,0.313c0.298,0.058 0.656,0.086 1.074,0.086l1.235,0l0,-1.425l-0.741,0c-0.254,0 -0.46,-0.01 -0.618,-0.029c-0.158,-0.019 -0.282,-0.06 -0.37,-0.123c-0.089,-0.063 -0.149,-0.152 -0.181,-0.266c-0.032,-0.114 -0.047,-0.266 -0.047,-0.456l0,-6.099l1.957,0l0,-1.425l-1.957,0Z" style="fill:#fff;fill-rule:nonzero;"/><path d="M200.466,271.698l0,13.566l1.615,0l0,-5.548c0,-0.443 0.06,-0.852 0.18,-1.225c0.12,-0.374 0.301,-0.7 0.542,-0.979c0.24,-0.279 0.541,-0.494 0.902,-0.646c0.361,-0.152 0.789,-0.228 1.283,-0.228c0.62,0 1.108,0.177 1.463,0.532c0.354,0.355 0.532,0.836 0.532,1.444l0,6.65l1.615,0l0,-6.46c0,-0.532 -0.054,-1.016 -0.162,-1.453c-0.108,-0.437 -0.294,-0.814 -0.56,-1.131c-0.266,-0.317 -0.615,-0.564 -1.045,-0.741c-0.431,-0.177 -0.969,-0.266 -1.615,-0.266c-0.292,0 -0.593,0.032 -0.903,0.095c-0.31,0.063 -0.608,0.162 -0.893,0.295c-0.285,0.132 -0.541,0.303 -0.769,0.512c-0.228,0.209 -0.406,0.466 -0.532,0.77l-0.038,0l0,-5.187l-1.615,0Z" style="fill:#fff;fill-rule:nonzero;"/><path d="M211.03,275.441l0,9.823l1.615,0l0,-6.118c0,-0.19 0.047,-0.428 0.142,-0.712c0.095,-0.286 0.247,-0.561 0.456,-0.827c0.209,-0.266 0.481,-0.494 0.817,-0.684c0.336,-0.19 0.738,-0.285 1.207,-0.285c0.367,0 0.668,0.054 0.902,0.162c0.234,0.107 0.421,0.259 0.561,0.456c0.139,0.196 0.237,0.427 0.294,0.693c0.057,0.266 0.086,0.557 0.086,0.874l0,6.441l1.615,0l0,-6.118c0,-0.76 0.228,-1.368 0.684,-1.824c0.456,-0.456 1.083,-0.684 1.881,-0.684c0.392,0 0.712,0.057 0.959,0.171c0.247,0.114 0.44,0.269 0.58,0.466c0.139,0.196 0.234,0.427 0.285,0.693c0.05,0.266 0.076,0.551 0.076,0.855l0,6.441l1.615,0l0,-7.201c0,-0.507 -0.08,-0.94 -0.238,-1.301c-0.158,-0.361 -0.38,-0.656 -0.665,-0.884c-0.285,-0.228 -0.627,-0.396 -1.026,-0.503c-0.399,-0.108 -0.845,-0.162 -1.339,-0.162c-0.646,0 -1.239,0.146 -1.777,0.437c-0.538,0.291 -0.972,0.703 -1.301,1.235c-0.203,-0.608 -0.551,-1.039 -1.045,-1.292c-0.494,-0.253 -1.045,-0.38 -1.653,-0.38c-1.381,0 -2.439,0.557 -3.173,1.672l-0.038,0l0,-1.444l-1.52,0Z" style="fill:#fff;fill-rule:nonzero;"/><path d="M165.325,308.294l1.71,0c-0.025,-0.747 -0.168,-1.39 -0.427,-1.928c-0.26,-0.539 -0.615,-0.985 -1.064,-1.34c-0.45,-0.355 -0.973,-0.614 -1.568,-0.779c-0.595,-0.165 -1.241,-0.247 -1.938,-0.247c-0.621,0 -1.225,0.079 -1.814,0.238c-0.589,0.158 -1.115,0.399 -1.577,0.721c-0.463,0.324 -0.833,0.735 -1.112,1.236c-0.279,0.5 -0.418,1.092 -0.418,1.776c0,0.621 0.124,1.137 0.371,1.548c0.247,0.412 0.576,0.748 0.988,1.007c0.411,0.26 0.877,0.469 1.396,0.627c0.519,0.159 1.048,0.298 1.587,0.418c0.538,0.121 1.067,0.238 1.586,0.352c0.519,0.114 0.985,0.263 1.397,0.447c0.411,0.183 0.741,0.421 0.988,0.712c0.247,0.291 0.37,0.671 0.37,1.14c0,0.494 -0.101,0.899 -0.304,1.216c-0.203,0.317 -0.469,0.567 -0.798,0.751c-0.329,0.183 -0.7,0.313 -1.111,0.389c-0.412,0.076 -0.821,0.114 -1.226,0.114c-0.507,0 -1.001,-0.063 -1.482,-0.19c-0.481,-0.127 -0.902,-0.323 -1.263,-0.589c-0.361,-0.266 -0.653,-0.605 -0.874,-1.016c-0.222,-0.412 -0.333,-0.903 -0.333,-1.473l-1.71,0c0,0.823 0.149,1.536 0.447,2.138c0.297,0.601 0.703,1.095 1.216,1.482c0.513,0.386 1.108,0.674 1.786,0.864c0.677,0.19 1.396,0.285 2.156,0.285c0.621,0 1.245,-0.073 1.872,-0.218c0.627,-0.146 1.193,-0.38 1.7,-0.703c0.507,-0.323 0.922,-0.741 1.245,-1.254c0.323,-0.513 0.484,-1.131 0.484,-1.853c0,-0.671 -0.123,-1.229 -0.37,-1.672c-0.247,-0.443 -0.577,-0.811 -0.988,-1.102c-0.412,-0.291 -0.878,-0.522 -1.397,-0.693c-0.519,-0.171 -1.048,-0.32 -1.586,-0.447c-0.539,-0.127 -1.068,-0.244 -1.587,-0.351c-0.519,-0.108 -0.985,-0.244 -1.396,-0.409c-0.412,-0.165 -0.741,-0.377 -0.988,-0.636c-0.247,-0.26 -0.371,-0.599 -0.371,-1.017c0,-0.443 0.086,-0.814 0.257,-1.111c0.171,-0.298 0.399,-0.536 0.684,-0.713c0.285,-0.177 0.611,-0.304 0.978,-0.38c0.367,-0.076 0.741,-0.114 1.121,-0.114c0.937,0 1.707,0.219 2.309,0.656c0.601,0.437 0.953,1.143 1.054,2.118Z" style="fill:#fff;fill-rule:nonzero;"/><path d="M173.381,319.2c-0.19,0.481 -0.377,0.887 -0.56,1.216c-0.184,0.329 -0.387,0.599 -0.608,0.808c-0.222,0.209 -0.469,0.361 -0.741,0.456c-0.273,0.094 -0.586,0.142 -0.941,0.142c-0.19,0 -0.38,-0.013 -0.57,-0.038c-0.19,-0.025 -0.374,-0.07 -0.551,-0.133l0,-1.482c0.139,0.063 0.301,0.117 0.485,0.162c0.183,0.044 0.338,0.066 0.465,0.066c0.329,0 0.605,-0.079 0.827,-0.237c0.221,-0.159 0.389,-0.384 0.503,-0.675l0.665,-1.653l-3.895,-9.766l1.824,0l2.869,8.037l0.038,0l2.755,-8.037l1.71,0l-4.275,11.134Z" style="fill:#fff;fill-rule:nonzero;"/><path d="M179.024,308.066l0,9.823l1.615,0l0,-5.548c0,-0.443 0.06,-0.852 0.181,-1.226c0.12,-0.373 0.3,-0.699 0.541,-0.978c0.241,-0.279 0.542,-0.494 0.903,-0.646c0.361,-0.152 0.788,-0.228 1.282,-0.228c0.621,0 1.108,0.177 1.463,0.532c0.355,0.355 0.532,0.836 0.532,1.444l0,6.65l1.615,0l0,-6.46c0,-0.532 -0.054,-1.016 -0.161,-1.453c-0.108,-0.438 -0.295,-0.814 -0.561,-1.131c-0.266,-0.317 -0.614,-0.564 -1.045,-0.741c-0.431,-0.177 -0.969,-0.266 -1.615,-0.266c-1.457,0 -2.521,0.595 -3.192,1.786l-0.038,0l0,-1.558l-1.52,0Z" style="fill:#fff;fill-rule:nonzero;"/><path d="M191.83,308.066l0,-2.945l-1.615,0l0,2.945l-1.672,0l0,1.425l1.672,0l0,6.251c0,0.456 0.044,0.823 0.133,1.102c0.089,0.279 0.225,0.494 0.409,0.646c0.183,0.152 0.424,0.257 0.722,0.313c0.297,0.058 0.655,0.086 1.073,0.086l1.235,0l0,-1.425l-0.741,0c-0.253,0 -0.459,-0.01 -0.617,-0.029c-0.159,-0.019 -0.282,-0.06 -0.371,-0.123c-0.089,-0.063 -0.149,-0.152 -0.18,-0.266c-0.032,-0.114 -0.048,-0.266 -0.048,-0.456l0,-6.099l1.957,0l0,-1.425l-1.957,0Z" style="fill:#fff;fill-rule:nonzero;"/><path d="M204.275,317.851c-0.279,0.165 -0.665,0.247 -1.159,0.247c-0.418,0 -0.75,-0.117 -0.997,-0.351c-0.247,-0.235 -0.371,-0.618 -0.371,-1.15c-0.443,0.532 -0.959,0.915 -1.548,1.149c-0.589,0.235 -1.226,0.352 -1.91,0.352c-0.443,0 -0.864,-0.051 -1.263,-0.152c-0.399,-0.101 -0.745,-0.26 -1.036,-0.475c-0.291,-0.215 -0.522,-0.497 -0.693,-0.846c-0.171,-0.348 -0.257,-0.769 -0.257,-1.263c0,-0.557 0.095,-1.013 0.285,-1.368c0.19,-0.355 0.44,-0.643 0.751,-0.865c0.31,-0.221 0.665,-0.389 1.064,-0.503c0.399,-0.114 0.807,-0.209 1.225,-0.285c0.443,-0.089 0.865,-0.155 1.264,-0.2c0.399,-0.044 0.75,-0.107 1.054,-0.19c0.304,-0.082 0.545,-0.202 0.722,-0.361c0.177,-0.158 0.266,-0.389 0.266,-0.693c0,-0.355 -0.066,-0.64 -0.199,-0.855c-0.133,-0.215 -0.304,-0.38 -0.513,-0.494c-0.209,-0.114 -0.444,-0.19 -0.703,-0.228c-0.26,-0.038 -0.517,-0.057 -0.77,-0.057c-0.684,0 -1.254,0.13 -1.71,0.39c-0.456,0.259 -0.703,0.75 -0.741,1.472l-1.615,0c0.025,-0.608 0.152,-1.121 0.38,-1.539c0.228,-0.418 0.532,-0.757 0.912,-1.016c0.38,-0.26 0.814,-0.447 1.302,-0.561c0.487,-0.114 1.01,-0.171 1.567,-0.171c0.443,0 0.884,0.032 1.321,0.095c0.437,0.063 0.832,0.193 1.187,0.389c0.355,0.197 0.64,0.472 0.855,0.827c0.215,0.355 0.323,0.817 0.323,1.387l0,5.054c0,0.38 0.022,0.659 0.067,0.836c0.044,0.177 0.193,0.266 0.446,0.266c0.139,0 0.304,-0.032 0.494,-0.095l0,1.254ZM201.653,312.816c-0.203,0.152 -0.469,0.263 -0.798,0.332c-0.329,0.07 -0.674,0.127 -1.035,0.171c-0.361,0.045 -0.726,0.096 -1.093,0.152c-0.367,0.058 -0.697,0.149 -0.988,0.276c-0.291,0.127 -0.529,0.307 -0.712,0.541c-0.184,0.235 -0.276,0.555 -0.276,0.96c0,0.266 0.054,0.491 0.162,0.675c0.107,0.183 0.247,0.332 0.418,0.446c0.171,0.114 0.37,0.196 0.598,0.247c0.228,0.051 0.469,0.076 0.722,0.076c0.532,0 0.988,-0.073 1.368,-0.219c0.38,-0.145 0.69,-0.329 0.931,-0.551c0.241,-0.221 0.418,-0.462 0.532,-0.722c0.114,-0.259 0.171,-0.503 0.171,-0.731l0,-1.653Z" style="fill:#fff;fill-rule:nonzero;"/><path d="M208.417,312.721l-3.686,5.168l1.957,0l2.736,-4.066l2.736,4.066l2.071,0l-3.8,-5.301l3.382,-4.522l-1.938,0l-2.451,3.439l-2.356,-3.439l-2.071,0l3.42,4.655Z" style="fill:#fff;fill-rule:nonzero;"/><path d="M159.796,112.658l1.805,0c-0.101,-0.722 -0.317,-1.359 -0.646,-1.91c-0.329,-0.551 -0.741,-1.01 -1.235,-1.377c-0.494,-0.367 -1.058,-0.646 -1.691,-0.836c-0.633,-0.19 -1.305,-0.285 -2.014,-0.285c-1.039,0 -1.96,0.187 -2.764,0.56c-0.805,0.374 -1.476,0.884 -2.014,1.53c-0.539,0.646 -0.947,1.403 -1.226,2.27c-0.279,0.868 -0.418,1.796 -0.418,2.784c0,0.988 0.13,1.913 0.39,2.774c0.259,0.861 0.649,1.609 1.168,2.242c0.519,0.633 1.172,1.13 1.957,1.491c0.785,0.361 1.704,0.542 2.755,0.542c1.735,0 3.103,-0.475 4.104,-1.425c1.001,-0.95 1.59,-2.28 1.767,-3.99l-1.805,0c-0.038,0.557 -0.152,1.077 -0.342,1.558c-0.19,0.481 -0.453,0.896 -0.788,1.244c-0.336,0.349 -0.735,0.621 -1.197,0.817c-0.463,0.197 -0.992,0.295 -1.587,0.295c-0.811,0 -1.507,-0.152 -2.09,-0.456c-0.583,-0.304 -1.061,-0.713 -1.434,-1.226c-0.374,-0.513 -0.65,-1.114 -0.827,-1.805c-0.177,-0.69 -0.266,-1.421 -0.266,-2.194c0,-0.709 0.089,-1.393 0.266,-2.052c0.177,-0.659 0.453,-1.245 0.827,-1.758c0.373,-0.513 0.848,-0.921 1.425,-1.225c0.576,-0.304 1.269,-0.456 2.08,-0.456c0.95,0 1.77,0.241 2.461,0.722c0.69,0.481 1.136,1.203 1.339,2.166Z" style="fill:#fff;fill-rule:nonzero;"/><path d="M164.888,117.237c0,-0.595 0.079,-1.124 0.238,-1.587c0.158,-0.462 0.376,-0.851 0.655,-1.168c0.279,-0.317 0.605,-0.557 0.979,-0.722c0.373,-0.165 0.769,-0.247 1.187,-0.247c0.418,0 0.814,0.082 1.188,0.247c0.373,0.165 0.699,0.405 0.978,0.722c0.279,0.317 0.497,0.706 0.656,1.168c0.158,0.463 0.237,0.992 0.237,1.587c0,0.595 -0.079,1.124 -0.237,1.587c-0.159,0.462 -0.377,0.848 -0.656,1.158c-0.279,0.311 -0.605,0.548 -0.978,0.713c-0.374,0.165 -0.77,0.247 -1.188,0.247c-0.418,0 -0.814,-0.082 -1.187,-0.247c-0.374,-0.165 -0.7,-0.402 -0.979,-0.713c-0.279,-0.31 -0.497,-0.696 -0.655,-1.159c-0.159,-0.462 -0.238,-0.991 -0.238,-1.586ZM163.178,117.237c0,0.722 0.101,1.393 0.304,2.014c0.203,0.621 0.507,1.162 0.912,1.624c0.405,0.463 0.906,0.824 1.501,1.084c0.595,0.259 1.279,0.389 2.052,0.389c0.785,0 1.473,-0.13 2.062,-0.389c0.589,-0.26 1.086,-0.621 1.491,-1.084c0.405,-0.462 0.709,-1.003 0.912,-1.624c0.203,-0.621 0.304,-1.292 0.304,-2.014c0,-0.722 -0.101,-1.397 -0.304,-2.024c-0.203,-0.627 -0.507,-1.171 -0.912,-1.634c-0.405,-0.462 -0.902,-0.826 -1.491,-1.092c-0.589,-0.266 -1.277,-0.399 -2.062,-0.399c-0.773,0 -1.457,0.133 -2.052,0.399c-0.595,0.266 -1.096,0.63 -1.501,1.092c-0.405,0.463 -0.709,1.007 -0.912,1.634c-0.203,0.627 -0.304,1.302 -0.304,2.024Z" style="fill:#fff;fill-rule:nonzero;"/><path d="M174.616,112.316l0,9.823l1.615,0l0,-5.548c0,-0.443 0.06,-0.852 0.181,-1.226c0.12,-0.373 0.3,-0.699 0.541,-0.978c0.241,-0.279 0.542,-0.494 0.903,-0.646c0.361,-0.152 0.788,-0.228 1.282,-0.228c0.621,0 1.108,0.177 1.463,0.532c0.355,0.355 0.532,0.836 0.532,1.444l0,6.65l1.615,0l0,-6.46c0,-0.532 -0.054,-1.017 -0.161,-1.454c-0.108,-0.437 -0.295,-0.813 -0.561,-1.13c-0.266,-0.317 -0.614,-0.564 -1.045,-0.741c-0.431,-0.177 -0.969,-0.266 -1.615,-0.266c-1.457,0 -2.521,0.595 -3.192,1.786l-0.038,0l0,-1.558l-1.52,0Z" style="fill:#fff;fill-rule:nonzero;"/><path d="M191.849,115.47l1.672,0c-0.063,-0.583 -0.215,-1.086 -0.456,-1.511c-0.241,-0.424 -0.548,-0.775 -0.921,-1.054c-0.374,-0.279 -0.805,-0.485 -1.292,-0.618c-0.488,-0.133 -1.011,-0.199 -1.568,-0.199c-0.773,0 -1.45,0.136 -2.033,0.408c-0.583,0.273 -1.067,0.646 -1.453,1.121c-0.387,0.475 -0.675,1.033 -0.865,1.672c-0.19,0.64 -0.285,1.327 -0.285,2.062c0,0.735 0.098,1.409 0.295,2.023c0.196,0.615 0.487,1.144 0.874,1.587c0.386,0.443 0.867,0.785 1.444,1.026c0.576,0.241 1.238,0.361 1.985,0.361c1.254,0 2.245,-0.329 2.974,-0.988c0.728,-0.659 1.181,-1.596 1.358,-2.812l-1.653,0c-0.101,0.76 -0.377,1.349 -0.826,1.767c-0.45,0.418 -1.074,0.627 -1.872,0.627c-0.507,0 -0.944,-0.101 -1.311,-0.304c-0.367,-0.203 -0.665,-0.472 -0.893,-0.808c-0.228,-0.335 -0.396,-0.718 -0.503,-1.149c-0.108,-0.431 -0.162,-0.874 -0.162,-1.33c0,-0.494 0.051,-0.972 0.152,-1.434c0.101,-0.463 0.269,-0.871 0.504,-1.226c0.234,-0.355 0.547,-0.64 0.94,-0.855c0.393,-0.215 0.88,-0.323 1.463,-0.323c0.684,0 1.229,0.171 1.634,0.513c0.405,0.342 0.671,0.823 0.798,1.444Z" style="fill:#fff;fill-rule:nonzero;"/><path d="M202.204,116.287l-5.643,0c0.025,-0.38 0.108,-0.738 0.247,-1.074c0.139,-0.335 0.329,-0.63 0.57,-0.883c0.241,-0.253 0.529,-0.453 0.865,-0.599c0.335,-0.145 0.712,-0.218 1.13,-0.218c0.405,0 0.776,0.073 1.112,0.218c0.335,0.146 0.627,0.342 0.874,0.589c0.247,0.247 0.443,0.542 0.589,0.884c0.145,0.342 0.231,0.703 0.256,1.083ZM203.762,119.023l-1.596,0c-0.139,0.646 -0.427,1.127 -0.864,1.444c-0.437,0.317 -0.998,0.475 -1.682,0.475c-0.532,0 -0.994,-0.089 -1.387,-0.266c-0.393,-0.177 -0.716,-0.415 -0.969,-0.712c-0.253,-0.298 -0.437,-0.64 -0.551,-1.026c-0.114,-0.387 -0.165,-0.795 -0.152,-1.226l7.353,0c0.025,-0.595 -0.028,-1.222 -0.161,-1.881c-0.133,-0.659 -0.374,-1.267 -0.722,-1.824c-0.349,-0.557 -0.811,-1.016 -1.387,-1.377c-0.577,-0.361 -1.302,-0.542 -2.176,-0.542c-0.671,0 -1.289,0.127 -1.852,0.38c-0.564,0.253 -1.052,0.608 -1.463,1.064c-0.412,0.456 -0.732,0.994 -0.96,1.615c-0.228,0.621 -0.342,1.305 -0.342,2.052c0.025,0.747 0.136,1.438 0.333,2.071c0.196,0.633 0.49,1.178 0.883,1.634c0.393,0.456 0.877,0.811 1.454,1.064c0.576,0.253 1.257,0.38 2.042,0.38c1.115,0 2.039,-0.279 2.774,-0.836c0.735,-0.557 1.21,-1.387 1.425,-2.489Z" style="fill:#fff;fill-rule:nonzero;"/><path d="M205.643,112.316l0,13.566l1.615,0l0,-5.054l0.038,0c0.177,0.291 0.396,0.535 0.656,0.731c0.259,0.197 0.535,0.352 0.826,0.466c0.291,0.114 0.586,0.196 0.884,0.247c0.297,0.051 0.566,0.076 0.807,0.076c0.747,0 1.403,-0.133 1.967,-0.399c0.563,-0.266 1.032,-0.63 1.406,-1.092c0.373,-0.463 0.652,-1.004 0.836,-1.625c0.183,-0.621 0.275,-1.279 0.275,-1.976c0,-0.697 -0.095,-1.355 -0.285,-1.976c-0.19,-0.621 -0.472,-1.168 -0.845,-1.643c-0.374,-0.475 -0.843,-0.852 -1.406,-1.131c-0.564,-0.279 -1.226,-0.418 -1.986,-0.418c-0.684,0 -1.311,0.124 -1.881,0.371c-0.57,0.247 -0.988,0.642 -1.254,1.187l-0.038,0l0,-1.33l-1.615,0ZM213.243,117.142c0,0.481 -0.051,0.95 -0.152,1.406c-0.101,0.456 -0.266,0.861 -0.494,1.216c-0.228,0.355 -0.529,0.64 -0.902,0.855c-0.374,0.215 -0.84,0.323 -1.397,0.323c-0.557,0 -1.032,-0.105 -1.425,-0.314c-0.393,-0.209 -0.712,-0.484 -0.959,-0.826c-0.247,-0.342 -0.428,-0.738 -0.542,-1.188c-0.114,-0.449 -0.171,-0.915 -0.171,-1.396c0,-0.456 0.054,-0.906 0.162,-1.349c0.107,-0.443 0.281,-0.839 0.522,-1.188c0.241,-0.348 0.551,-0.63 0.931,-0.845c0.38,-0.215 0.842,-0.323 1.387,-0.323c0.519,0 0.972,0.101 1.359,0.304c0.386,0.203 0.703,0.475 0.95,0.817c0.247,0.342 0.43,0.731 0.551,1.168c0.12,0.437 0.18,0.884 0.18,1.34Z" style="fill:#fff;fill-rule:nonzero;"/><path d="M219.095,112.316l0,-2.945l-1.615,0l0,2.945l-1.672,0l0,1.425l1.672,0l0,6.251c0,0.456 0.044,0.823 0.133,1.102c0.089,0.279 0.225,0.494 0.409,0.646c0.183,0.152 0.424,0.256 0.722,0.313c0.297,0.057 0.655,0.086 1.073,0.086l1.235,0l0,-1.425l-0.741,0c-0.253,0 -0.459,-0.01 -0.617,-0.029c-0.159,-0.019 -0.282,-0.06 -0.371,-0.123c-0.089,-0.063 -0.149,-0.152 -0.18,-0.266c-0.032,-0.114 -0.048,-0.266 -0.048,-0.456l0,-6.099l1.957,0l0,-1.425l-1.957,0Z" style="fill:#fff;fill-rule:nonzero;"/><path d="M121.768,43.323l0,13.566l8.987,0l0,-1.52l-7.182,0l0,-12.046l-1.805,0Z" style="fill:#fff;fill-rule:nonzero;"/><path d="M133.776,45.299l0,-1.976l-1.615,0l0,1.976l1.615,0ZM132.161,47.066l0,9.823l1.615,0l0,-9.823l-1.615,0Z" style="fill:#fff;fill-rule:nonzero;"/><path d="M136.949,48.491l0,8.398l1.615,0l0,-8.398l1.9,0l0,-1.425l-1.9,0l0,-1.368c0,-0.431 0.107,-0.722 0.323,-0.874c0.215,-0.152 0.519,-0.228 0.912,-0.228c0.139,0 0.291,0.009 0.456,0.029c0.164,0.018 0.316,0.053 0.456,0.104l0,-1.406c-0.152,-0.051 -0.327,-0.089 -0.523,-0.114c-0.196,-0.025 -0.37,-0.038 -0.522,-0.038c-0.887,0 -1.562,0.206 -2.024,0.617c-0.462,0.412 -0.693,1.017 -0.693,1.815l0,1.463l-1.653,0l0,1.425l1.653,0Z" style="fill:#fff;fill-rule:nonzero;"/><path d="M148.729,51.037l-5.643,0c0.025,-0.38 0.107,-0.738 0.247,-1.074c0.139,-0.335 0.329,-0.63 0.57,-0.883c0.24,-0.253 0.528,-0.453 0.864,-0.599c0.336,-0.145 0.713,-0.218 1.131,-0.218c0.405,0 0.775,0.073 1.111,0.218c0.336,0.146 0.627,0.342 0.874,0.589c0.247,0.247 0.443,0.542 0.589,0.884c0.146,0.342 0.231,0.703 0.257,1.083ZM150.287,53.773l-1.596,0c-0.14,0.646 -0.428,1.127 -0.865,1.444c-0.437,0.317 -0.997,0.475 -1.681,0.475c-0.532,0 -0.995,-0.089 -1.387,-0.266c-0.393,-0.177 -0.716,-0.415 -0.969,-0.713c-0.254,-0.297 -0.437,-0.639 -0.551,-1.026c-0.114,-0.386 -0.165,-0.794 -0.152,-1.225l7.353,0c0.025,-0.595 -0.029,-1.222 -0.162,-1.881c-0.133,-0.659 -0.374,-1.267 -0.722,-1.824c-0.348,-0.557 -0.811,-1.017 -1.387,-1.378c-0.576,-0.361 -1.301,-0.541 -2.175,-0.541c-0.672,0 -1.289,0.127 -1.853,0.38c-0.564,0.253 -1.051,0.608 -1.463,1.064c-0.412,0.456 -0.731,0.994 -0.959,1.615c-0.228,0.621 -0.342,1.305 -0.342,2.052c0.025,0.747 0.136,1.438 0.332,2.071c0.196,0.633 0.491,1.178 0.884,1.634c0.392,0.456 0.877,0.811 1.453,1.064c0.576,0.253 1.257,0.38 2.043,0.38c1.114,0 2.039,-0.279 2.774,-0.836c0.734,-0.557 1.209,-1.387 1.425,-2.489Z" style="fill:#fff;fill-rule:nonzero;"/><path d="M158.78,50.22l1.672,0c-0.064,-0.583 -0.216,-1.086 -0.456,-1.511c-0.241,-0.424 -0.548,-0.775 -0.922,-1.054c-0.374,-0.279 -0.804,-0.484 -1.292,-0.617c-0.488,-0.133 -1.01,-0.2 -1.567,-0.2c-0.773,0 -1.451,0.136 -2.033,0.409c-0.583,0.272 -1.068,0.646 -1.454,1.12c-0.386,0.476 -0.674,1.033 -0.864,1.673c-0.19,0.639 -0.285,1.326 -0.285,2.061c0,0.735 0.098,1.409 0.294,2.024c0.196,0.614 0.488,1.143 0.874,1.586c0.386,0.443 0.868,0.785 1.444,1.026c0.576,0.241 1.238,0.361 1.986,0.361c1.254,0 2.245,-0.329 2.973,-0.988c0.728,-0.659 1.181,-1.596 1.359,-2.812l-1.653,0c-0.102,0.76 -0.377,1.349 -0.827,1.767c-0.45,0.418 -1.073,0.627 -1.871,0.627c-0.507,0 -0.944,-0.101 -1.311,-0.304c-0.368,-0.203 -0.665,-0.472 -0.893,-0.807c-0.228,-0.336 -0.396,-0.719 -0.504,-1.15c-0.108,-0.431 -0.161,-0.874 -0.161,-1.33c0,-0.494 0.05,-0.972 0.152,-1.435c0.101,-0.462 0.269,-0.87 0.503,-1.225c0.234,-0.355 0.548,-0.64 0.941,-0.855c0.392,-0.215 0.88,-0.323 1.463,-0.323c0.684,0 1.228,0.171 1.634,0.513c0.405,0.342 0.671,0.823 0.798,1.444Z" style="fill:#fff;fill-rule:nonzero;"/><path d="M166.171,58.2c-0.19,0.481 -0.377,0.887 -0.561,1.216c-0.184,0.329 -0.386,0.598 -0.608,0.807c-0.222,0.209 -0.469,0.361 -0.741,0.456c-0.272,0.095 -0.586,0.143 -0.94,0.143c-0.19,0 -0.38,-0.013 -0.57,-0.038c-0.19,-0.025 -0.374,-0.07 -0.551,-0.133l0,-1.482c0.139,0.063 0.3,0.117 0.484,0.161c0.184,0.045 0.339,0.067 0.466,0.067c0.329,0 0.604,-0.079 0.826,-0.238c0.222,-0.158 0.39,-0.383 0.504,-0.674l0.665,-1.653l-3.895,-9.766l1.824,0l2.869,8.037l0.038,0l2.755,-8.037l1.71,0l-4.275,11.134Z" style="fill:#fff;fill-rule:nonzero;"/><path d="M178.483,50.22l1.672,0c-0.064,-0.583 -0.216,-1.086 -0.456,-1.511c-0.241,-0.424 -0.548,-0.775 -0.922,-1.054c-0.374,-0.279 -0.804,-0.484 -1.292,-0.617c-0.488,-0.133 -1.01,-0.2 -1.567,-0.2c-0.773,0 -1.451,0.136 -2.033,0.409c-0.583,0.272 -1.068,0.646 -1.454,1.12c-0.386,0.476 -0.674,1.033 -0.864,1.673c-0.19,0.639 -0.285,1.326 -0.285,2.061c0,0.735 0.098,1.409 0.294,2.024c0.196,0.614 0.488,1.143 0.874,1.586c0.386,0.443 0.868,0.785 1.444,1.026c0.576,0.241 1.238,0.361 1.986,0.361c1.254,0 2.245,-0.329 2.973,-0.988c0.728,-0.659 1.181,-1.596 1.359,-2.812l-1.653,0c-0.102,0.76 -0.377,1.349 -0.827,1.767c-0.45,0.418 -1.073,0.627 -1.871,0.627c-0.507,0 -0.944,-0.101 -1.311,-0.304c-0.368,-0.203 -0.665,-0.472 -0.893,-0.807c-0.228,-0.336 -0.396,-0.719 -0.504,-1.15c-0.108,-0.431 -0.161,-0.874 -0.161,-1.33c0,-0.494 0.05,-0.972 0.152,-1.435c0.101,-0.462 0.269,-0.87 0.503,-1.225c0.234,-0.355 0.548,-0.64 0.941,-0.855c0.392,-0.215 0.88,-0.323 1.463,-0.323c0.684,0 1.228,0.171 1.634,0.513c0.405,0.342 0.671,0.823 0.798,1.444Z" style="fill:#fff;fill-rule:nonzero;"/><rect x="182.112" y="43.323" width="1.615" height="13.566" style="fill:#fff;fill-rule:nonzero;"/><path d="M193.056,51.037l-5.643,0c0.025,-0.38 0.107,-0.738 0.247,-1.074c0.139,-0.335 0.329,-0.63 0.57,-0.883c0.24,-0.253 0.528,-0.453 0.864,-0.599c0.336,-0.145 0.713,-0.218 1.131,-0.218c0.405,0 0.775,0.073 1.111,0.218c0.336,0.146 0.627,0.342 0.874,0.589c0.247,0.247 0.443,0.542 0.589,0.884c0.146,0.342 0.231,0.703 0.257,1.083ZM194.614,53.773l-1.596,0c-0.14,0.646 -0.428,1.127 -0.865,1.444c-0.437,0.317 -0.997,0.475 -1.681,0.475c-0.532,0 -0.995,-0.089 -1.387,-0.266c-0.393,-0.177 -0.716,-0.415 -0.969,-0.713c-0.254,-0.297 -0.437,-0.639 -0.551,-1.026c-0.114,-0.386 -0.165,-0.794 -0.152,-1.225l7.353,0c0.025,-0.595 -0.029,-1.222 -0.162,-1.881c-0.133,-0.659 -0.374,-1.267 -0.722,-1.824c-0.348,-0.557 -0.811,-1.017 -1.387,-1.378c-0.576,-0.361 -1.301,-0.541 -2.175,-0.541c-0.672,0 -1.289,0.127 -1.853,0.38c-0.564,0.253 -1.051,0.608 -1.463,1.064c-0.412,0.456 -0.731,0.994 -0.959,1.615c-0.228,0.621 -0.342,1.305 -0.342,2.052c0.025,0.747 0.136,1.438 0.332,2.071c0.196,0.633 0.491,1.178 0.884,1.634c0.392,0.456 0.877,0.811 1.453,1.064c0.576,0.253 1.257,0.38 2.043,0.38c1.114,0 2.039,-0.279 2.774,-0.836c0.734,-0.557 1.209,-1.387 1.425,-2.489Z" style="fill:#fff;fill-rule:nonzero;"/><path d="M209.833,47.294l1.71,0c-0.026,-0.747 -0.168,-1.39 -0.428,-1.929c-0.26,-0.538 -0.614,-0.984 -1.064,-1.339c-0.45,-0.355 -0.972,-0.614 -1.567,-0.779c-0.596,-0.165 -1.242,-0.247 -1.938,-0.247c-0.621,0 -1.226,0.079 -1.815,0.237c-0.589,0.159 -1.115,0.399 -1.577,0.722c-0.462,0.323 -0.833,0.735 -1.111,1.235c-0.279,0.501 -0.418,1.093 -0.418,1.777c0,0.621 0.123,1.137 0.37,1.548c0.247,0.412 0.576,0.748 0.988,1.007c0.412,0.26 0.877,0.469 1.397,0.627c0.519,0.159 1.048,0.298 1.586,0.418c0.538,0.121 1.067,0.238 1.587,0.352c0.519,0.114 0.984,0.263 1.396,0.446c0.412,0.184 0.741,0.422 0.988,0.713c0.247,0.291 0.371,0.671 0.371,1.14c0,0.494 -0.102,0.899 -0.304,1.216c-0.203,0.317 -0.469,0.567 -0.798,0.75c-0.33,0.184 -0.7,0.314 -1.112,0.39c-0.412,0.076 -0.82,0.114 -1.225,0.114c-0.507,0 -1.001,-0.063 -1.482,-0.19c-0.482,-0.127 -0.903,-0.323 -1.264,-0.589c-0.361,-0.266 -0.652,-0.605 -0.874,-1.017c-0.222,-0.411 -0.332,-0.902 -0.332,-1.472l-1.71,0c0,0.823 0.148,1.536 0.446,2.137c0.298,0.602 0.703,1.096 1.216,1.482c0.513,0.387 1.108,0.675 1.786,0.865c0.678,0.19 1.397,0.285 2.157,0.285c0.62,0 1.244,-0.073 1.871,-0.219c0.627,-0.145 1.194,-0.38 1.701,-0.703c0.506,-0.322 0.921,-0.741 1.244,-1.253c0.323,-0.514 0.485,-1.131 0.485,-1.853c0,-0.671 -0.124,-1.229 -0.371,-1.672c-0.247,-0.443 -0.576,-0.811 -0.988,-1.102c-0.412,-0.291 -0.877,-0.523 -1.396,-0.694c-0.52,-0.17 -1.049,-0.319 -1.587,-0.446c-0.538,-0.127 -1.067,-0.244 -1.586,-0.352c-0.52,-0.107 -0.985,-0.243 -1.397,-0.408c-0.412,-0.165 -0.741,-0.377 -0.988,-0.637c-0.247,-0.259 -0.37,-0.598 -0.37,-1.016c0,-0.443 0.085,-0.814 0.256,-1.112c0.171,-0.297 0.399,-0.535 0.684,-0.712c0.285,-0.177 0.611,-0.304 0.979,-0.38c0.367,-0.076 0.741,-0.114 1.121,-0.114c0.937,0 1.706,0.218 2.308,0.655c0.602,0.438 0.953,1.144 1.055,2.119Z" style="fill:#fff;fill-rule:nonzero;"/><path d="M216.274,47.066l0,-2.945l-1.615,0l0,2.945l-1.672,0l0,1.425l1.672,0l0,6.251c0,0.456 0.044,0.823 0.133,1.102c0.088,0.279 0.224,0.494 0.408,0.646c0.184,0.152 0.424,0.257 0.722,0.314c0.298,0.057 0.656,0.085 1.074,0.085l1.235,0l0,-1.425l-0.741,0c-0.254,0 -0.46,-0.01 -0.618,-0.029c-0.158,-0.018 -0.282,-0.06 -0.37,-0.123c-0.089,-0.063 -0.149,-0.152 -0.181,-0.266c-0.032,-0.114 -0.047,-0.266 -0.047,-0.456l0,-6.099l1.957,0l0,-1.425l-1.957,0Z" style="fill:#fff;fill-rule:nonzero;"/><path d="M228.719,56.851c-0.279,0.165 -0.665,0.247 -1.159,0.247c-0.418,0 -0.751,-0.117 -0.998,-0.352c-0.247,-0.234 -0.37,-0.617 -0.37,-1.149c-0.444,0.532 -0.96,0.915 -1.549,1.149c-0.589,0.235 -1.225,0.352 -1.909,0.352c-0.444,0 -0.865,-0.051 -1.264,-0.152c-0.399,-0.101 -0.744,-0.26 -1.035,-0.475c-0.292,-0.215 -0.523,-0.497 -0.694,-0.845c-0.171,-0.349 -0.256,-0.77 -0.256,-1.264c0,-0.557 0.095,-1.013 0.285,-1.368c0.19,-0.355 0.44,-0.643 0.75,-0.864c0.31,-0.222 0.665,-0.39 1.064,-0.504c0.399,-0.114 0.808,-0.209 1.226,-0.285c0.443,-0.089 0.864,-0.155 1.263,-0.2c0.399,-0.044 0.751,-0.107 1.055,-0.19c0.304,-0.082 0.544,-0.202 0.722,-0.361c0.177,-0.158 0.266,-0.389 0.266,-0.693c0,-0.355 -0.067,-0.64 -0.2,-0.855c-0.133,-0.215 -0.304,-0.38 -0.513,-0.494c-0.209,-0.114 -0.443,-0.19 -0.703,-0.228c-0.26,-0.038 -0.516,-0.057 -0.769,-0.057c-0.684,0 -1.254,0.13 -1.71,0.389c-0.456,0.26 -0.703,0.751 -0.741,1.473l-1.615,0c0.025,-0.608 0.152,-1.121 0.38,-1.539c0.228,-0.418 0.532,-0.757 0.912,-1.017c0.38,-0.259 0.813,-0.446 1.301,-0.56c0.488,-0.114 1.01,-0.171 1.568,-0.171c0.443,0 0.883,0.032 1.32,0.095c0.437,0.063 0.833,0.193 1.188,0.389c0.354,0.197 0.639,0.472 0.855,0.827c0.215,0.355 0.323,0.817 0.323,1.387l0,5.054c0,0.38 0.022,0.659 0.066,0.836c0.044,0.177 0.193,0.266 0.447,0.266c0.139,0 0.304,-0.032 0.494,-0.095l0,1.254ZM226.097,51.816c-0.203,0.152 -0.469,0.263 -0.798,0.332c-0.33,0.07 -0.675,0.127 -1.036,0.171c-0.361,0.045 -0.725,0.095 -1.092,0.152c-0.368,0.057 -0.697,0.149 -0.988,0.276c-0.292,0.127 -0.529,0.307 -0.713,0.541c-0.184,0.235 -0.275,0.555 -0.275,0.96c0,0.266 0.053,0.491 0.161,0.674c0.108,0.184 0.247,0.333 0.418,0.447c0.171,0.114 0.371,0.196 0.599,0.247c0.228,0.051 0.468,0.076 0.722,0.076c0.532,0 0.988,-0.073 1.368,-0.219c0.38,-0.145 0.69,-0.329 0.931,-0.551c0.24,-0.221 0.418,-0.462 0.532,-0.722c0.114,-0.259 0.171,-0.503 0.171,-0.731l0,-1.653Z" style="fill:#fff;fill-rule:nonzero;"/><path d="M238.694,56.053l0,-8.987l-1.52,0l0,1.406l-0.019,0c-0.292,-0.545 -0.697,-0.953 -1.216,-1.226c-0.52,-0.272 -1.09,-0.408 -1.71,-0.408c-0.849,0 -1.565,0.161 -2.147,0.484c-0.583,0.323 -1.052,0.735 -1.406,1.235c-0.355,0.501 -0.608,1.058 -0.76,1.672c-0.152,0.615 -0.228,1.213 -0.228,1.796c0,0.671 0.091,1.308 0.275,1.909c0.184,0.602 0.459,1.128 0.827,1.578c0.367,0.449 0.823,0.807 1.368,1.073c0.544,0.266 1.184,0.399 1.919,0.399c0.633,0 1.231,-0.143 1.795,-0.428c0.564,-0.285 0.985,-0.731 1.264,-1.339l0.038,0l0,0.646c0,0.545 -0.054,1.045 -0.162,1.501c-0.108,0.456 -0.282,0.845 -0.522,1.168c-0.241,0.323 -0.545,0.577 -0.912,0.76c-0.368,0.184 -0.817,0.276 -1.349,0.276c-0.266,0 -0.545,-0.029 -0.836,-0.086c-0.292,-0.057 -0.561,-0.148 -0.808,-0.275c-0.247,-0.127 -0.456,-0.291 -0.627,-0.494c-0.171,-0.203 -0.263,-0.45 -0.275,-0.741l-1.615,0c0.025,0.532 0.164,0.982 0.418,1.349c0.253,0.367 0.573,0.665 0.959,0.893c0.386,0.228 0.817,0.393 1.292,0.494c0.475,0.101 0.941,0.152 1.397,0.152c1.57,0 2.723,-0.399 3.458,-1.197c0.734,-0.798 1.102,-2.001 1.102,-3.61ZM234.172,55.578c-0.532,0 -0.976,-0.111 -1.33,-0.333c-0.355,-0.221 -0.64,-0.513 -0.855,-0.874c-0.216,-0.361 -0.368,-0.763 -0.456,-1.206c-0.089,-0.443 -0.133,-0.887 -0.133,-1.33c0,-0.469 0.053,-0.918 0.161,-1.349c0.108,-0.431 0.279,-0.811 0.513,-1.14c0.234,-0.329 0.535,-0.592 0.903,-0.789c0.367,-0.196 0.81,-0.294 1.33,-0.294c0.506,0 0.937,0.101 1.292,0.304c0.354,0.203 0.642,0.472 0.864,0.807c0.222,0.336 0.383,0.713 0.485,1.131c0.101,0.418 0.152,0.842 0.152,1.273c0,0.456 -0.054,0.912 -0.162,1.368c-0.108,0.456 -0.275,0.864 -0.503,1.225c-0.228,0.361 -0.529,0.653 -0.903,0.874c-0.374,0.222 -0.826,0.333 -1.358,0.333Z" style="fill:#fff;fill-rule:nonzero;"/><path d="M247.947,51.037l-5.643,0c0.025,-0.38 0.107,-0.738 0.247,-1.074c0.139,-0.335 0.329,-0.63 0.57,-0.883c0.24,-0.253 0.528,-0.453 0.864,-0.599c0.336,-0.145 0.713,-0.218 1.131,-0.218c0.405,0 0.775,0.073 1.111,0.218c0.336,0.146 0.627,0.342 0.874,0.589c0.247,0.247 0.443,0.542 0.589,0.884c0.146,0.342 0.231,0.703 0.257,1.083ZM249.505,53.773l-1.596,0c-0.14,0.646 -0.428,1.127 -0.865,1.444c-0.437,0.317 -0.997,0.475 -1.681,0.475c-0.532,0 -0.995,-0.089 -1.387,-0.266c-0.393,-0.177 -0.716,-0.415 -0.969,-0.713c-0.254,-0.297 -0.437,-0.639 -0.551,-1.026c-0.114,-0.386 -0.165,-0.794 -0.152,-1.225l7.353,0c0.025,-0.595 -0.029,-1.222 -0.162,-1.881c-0.133,-0.659 -0.374,-1.267 -0.722,-1.824c-0.348,-0.557 -0.811,-1.017 -1.387,-1.378c-0.576,-0.361 -1.301,-0.541 -2.175,-0.541c-0.672,0 -1.289,0.127 -1.853,0.38c-0.564,0.253 -1.051,0.608 -1.463,1.064c-0.412,0.456 -0.731,0.994 -0.959,1.615c-0.228,0.621 -0.342,1.305 -0.342,2.052c0.025,0.747 0.136,1.438 0.332,2.071c0.196,0.633 0.491,1.178 0.884,1.634c0.392,0.456 0.877,0.811 1.453,1.064c0.576,0.253 1.257,0.38 2.043,0.38c1.114,0 2.039,-0.279 2.774,-0.836c0.734,-0.557 1.209,-1.387 1.425,-2.489Z" style="fill:#fff;fill-rule:nonzero;"/><path d="M113.142,0.323l0,13.566l1.805,0l0,-6.213l7.144,0l0,6.213l1.805,0l0,-13.566l-1.805,0l0,5.833l-7.144,0l0,-5.833l-1.805,0Z" style="fill:#0087ff;fill-rule:nonzero;"/><path d="M128.304,2.299l0,-1.976l-1.615,0l0,1.976l1.615,0ZM126.689,4.066l0,9.823l1.615,0l0,-9.823l-1.615,0Z" style="fill:#0087ff;fill-rule:nonzero;"/><path d="M139.286,13.053l0,-8.987l-1.52,0l0,1.406l-0.019,0c-0.292,-0.545 -0.697,-0.953 -1.216,-1.226c-0.52,-0.272 -1.09,-0.408 -1.71,-0.408c-0.849,0 -1.565,0.161 -2.147,0.484c-0.583,0.323 -1.052,0.735 -1.406,1.235c-0.355,0.501 -0.608,1.058 -0.76,1.672c-0.152,0.615 -0.228,1.213 -0.228,1.796c0,0.671 0.091,1.308 0.275,1.909c0.184,0.602 0.459,1.128 0.827,1.577c0.367,0.45 0.823,0.808 1.368,1.074c0.544,0.266 1.184,0.399 1.919,0.399c0.633,0 1.231,-0.143 1.795,-0.428c0.564,-0.285 0.985,-0.731 1.264,-1.339l0.038,0l0,0.646c0,0.545 -0.054,1.045 -0.162,1.501c-0.108,0.456 -0.282,0.845 -0.522,1.168c-0.241,0.323 -0.545,0.577 -0.912,0.761c-0.368,0.183 -0.817,0.275 -1.349,0.275c-0.266,0 -0.545,-0.028 -0.836,-0.085c-0.292,-0.057 -0.561,-0.149 -0.808,-0.276c-0.247,-0.127 -0.456,-0.291 -0.627,-0.494c-0.171,-0.203 -0.263,-0.45 -0.275,-0.741l-1.615,0c0.025,0.532 0.164,0.982 0.418,1.349c0.253,0.367 0.573,0.665 0.959,0.893c0.386,0.228 0.817,0.393 1.292,0.494c0.475,0.101 0.941,0.152 1.397,0.152c1.57,0 2.723,-0.399 3.458,-1.197c0.734,-0.798 1.102,-2.001 1.102,-3.61ZM134.764,12.578c-0.532,0 -0.976,-0.111 -1.33,-0.332c-0.355,-0.222 -0.64,-0.514 -0.855,-0.875c-0.216,-0.36 -0.368,-0.763 -0.456,-1.206c-0.089,-0.443 -0.133,-0.887 -0.133,-1.33c0,-0.469 0.053,-0.918 0.161,-1.349c0.108,-0.431 0.279,-0.811 0.513,-1.14c0.234,-0.329 0.535,-0.592 0.903,-0.788c0.367,-0.197 0.81,-0.295 1.33,-0.295c0.506,0 0.937,0.101 1.292,0.304c0.354,0.203 0.642,0.472 0.864,0.808c0.222,0.335 0.383,0.712 0.485,1.13c0.101,0.418 0.152,0.842 0.152,1.273c0,0.456 -0.054,0.912 -0.162,1.368c-0.108,0.456 -0.275,0.865 -0.503,1.225c-0.228,0.361 -0.529,0.653 -0.903,0.875c-0.374,0.221 -0.826,0.332 -1.358,0.332Z" style="fill:#0087ff;fill-rule:nonzero;"/><path d="M141.718,0.323l0,13.566l1.615,0l0,-5.548c0,-0.443 0.06,-0.852 0.18,-1.226c0.12,-0.373 0.301,-0.699 0.542,-0.978c0.24,-0.279 0.541,-0.494 0.902,-0.646c0.361,-0.152 0.789,-0.228 1.283,-0.228c0.62,0 1.108,0.177 1.463,0.532c0.354,0.355 0.532,0.836 0.532,1.444l0,6.65l1.615,0l0,-6.46c0,-0.532 -0.054,-1.017 -0.162,-1.454c-0.108,-0.437 -0.294,-0.813 -0.56,-1.13c-0.266,-0.317 -0.615,-0.564 -1.045,-0.741c-0.431,-0.177 -0.969,-0.266 -1.615,-0.266c-0.292,0 -0.593,0.032 -0.903,0.095c-0.31,0.063 -0.608,0.161 -0.893,0.294c-0.285,0.133 -0.541,0.304 -0.769,0.513c-0.228,0.209 -0.406,0.466 -0.532,0.77l-0.038,0l0,-5.187l-1.615,0Z" style="fill:#0087ff;fill-rule:nonzero;"/><path d="M157.83,0.323l0,13.566l8.987,0l0,-1.52l-7.182,0l0,-12.046l-1.805,0Z" style="fill:#0087ff;fill-rule:nonzero;"/><path d="M174.949,8.037l-5.643,0c0.025,-0.38 0.107,-0.738 0.247,-1.074c0.139,-0.335 0.329,-0.63 0.57,-0.883c0.24,-0.253 0.528,-0.453 0.864,-0.599c0.336,-0.145 0.713,-0.218 1.131,-0.218c0.405,0 0.775,0.073 1.111,0.218c0.336,0.146 0.627,0.342 0.874,0.589c0.247,0.247 0.443,0.542 0.589,0.884c0.146,0.342 0.231,0.703 0.257,1.083ZM176.507,10.773l-1.596,0c-0.14,0.646 -0.428,1.127 -0.865,1.444c-0.437,0.317 -0.997,0.475 -1.681,0.475c-0.532,0 -0.995,-0.089 -1.387,-0.266c-0.393,-0.177 -0.716,-0.415 -0.969,-0.712c-0.254,-0.298 -0.437,-0.64 -0.551,-1.026c-0.114,-0.387 -0.165,-0.795 -0.152,-1.226l7.353,0c0.025,-0.595 -0.029,-1.222 -0.162,-1.881c-0.133,-0.659 -0.374,-1.267 -0.722,-1.824c-0.348,-0.557 -0.811,-1.017 -1.387,-1.378c-0.576,-0.361 -1.301,-0.541 -2.175,-0.541c-0.672,0 -1.289,0.127 -1.853,0.38c-0.564,0.253 -1.051,0.608 -1.463,1.064c-0.412,0.456 -0.731,0.994 -0.959,1.615c-0.228,0.621 -0.342,1.305 -0.342,2.052c0.025,0.747 0.136,1.438 0.332,2.071c0.196,0.633 0.491,1.178 0.884,1.634c0.392,0.456 0.877,0.811 1.453,1.064c0.576,0.253 1.257,0.38 2.043,0.38c1.114,0 2.039,-0.279 2.774,-0.836c0.734,-0.557 1.209,-1.387 1.425,-2.489Z" style="fill:#0087ff;fill-rule:nonzero;"/><path d="M182.758,13.889l3.591,-9.823l-1.691,0l-2.679,8.189l-0.038,0l-2.755,-8.189l-1.805,0l3.648,9.823l1.729,0Z" style="fill:#0087ff;fill-rule:nonzero;"/><path d="M194.652,8.037l-5.643,0c0.025,-0.38 0.107,-0.738 0.247,-1.074c0.139,-0.335 0.329,-0.63 0.57,-0.883c0.24,-0.253 0.528,-0.453 0.864,-0.599c0.336,-0.145 0.713,-0.218 1.131,-0.218c0.405,0 0.775,0.073 1.111,0.218c0.336,0.146 0.627,0.342 0.874,0.589c0.247,0.247 0.443,0.542 0.589,0.884c0.146,0.342 0.231,0.703 0.257,1.083ZM196.21,10.773l-1.596,0c-0.14,0.646 -0.428,1.127 -0.865,1.444c-0.437,0.317 -0.997,0.475 -1.681,0.475c-0.532,0 -0.995,-0.089 -1.387,-0.266c-0.393,-0.177 -0.716,-0.415 -0.969,-0.712c-0.254,-0.298 -0.437,-0.64 -0.551,-1.026c-0.114,-0.387 -0.165,-0.795 -0.152,-1.226l7.353,0c0.025,-0.595 -0.029,-1.222 -0.162,-1.881c-0.133,-0.659 -0.374,-1.267 -0.722,-1.824c-0.348,-0.557 -0.811,-1.017 -1.387,-1.378c-0.576,-0.361 -1.301,-0.541 -2.175,-0.541c-0.672,0 -1.289,0.127 -1.853,0.38c-0.564,0.253 -1.051,0.608 -1.463,1.064c-0.412,0.456 -0.731,0.994 -0.959,1.615c-0.228,0.621 -0.342,1.305 -0.342,2.052c0.025,0.747 0.136,1.438 0.332,2.071c0.196,0.633 0.491,1.178 0.884,1.634c0.392,0.456 0.877,0.811 1.453,1.064c0.576,0.253 1.257,0.38 2.043,0.38c1.114,0 2.039,-0.279 2.774,-0.836c0.734,-0.557 1.209,-1.387 1.425,-2.489Z" style="fill:#0087ff;fill-rule:nonzero;"/><rect x="198.129" y="0.323" width="1.615" height="13.566" style="fill:#0087ff;fill-rule:nonzero;"/><path d="M206.318,0l-5.605,14.193l1.368,0l5.624,-14.193l-1.387,0Z" style="fill:#0087ff;fill-rule:nonzero;"/><path d="M210.65,6.156l0,-4.313l3.61,0c0.392,0 0.763,0.022 1.111,0.066c0.348,0.045 0.656,0.143 0.922,0.295c0.266,0.152 0.475,0.367 0.627,0.646c0.152,0.279 0.228,0.659 0.228,1.14c0,0.722 -0.225,1.263 -0.675,1.624c-0.45,0.361 -1.187,0.542 -2.213,0.542l-3.61,0ZM208.845,0.323l0,13.566l6.555,0c0.671,0 1.263,-0.111 1.776,-0.333c0.513,-0.221 0.944,-0.513 1.292,-0.874c0.348,-0.361 0.611,-0.775 0.789,-1.244c0.177,-0.469 0.266,-0.95 0.266,-1.444c0,-0.836 -0.222,-1.545 -0.665,-2.128c-0.444,-0.583 -1.083,-0.963 -1.919,-1.14l0,-0.038c0.646,-0.253 1.143,-0.643 1.491,-1.168c0.348,-0.526 0.523,-1.15 0.523,-1.872c0,-0.684 -0.156,-1.26 -0.466,-1.729c-0.31,-0.469 -0.687,-0.836 -1.13,-1.102c-0.203,-0.127 -0.447,-0.222 -0.732,-0.285c-0.285,-0.063 -0.592,-0.111 -0.921,-0.143c-0.33,-0.031 -0.662,-0.05 -0.998,-0.056c-0.336,-0.007 -0.649,-0.01 -0.94,-0.01l-4.921,0ZM210.65,12.369l0,-4.693l4.123,0c0.38,0 0.747,0.035 1.102,0.105c0.354,0.069 0.668,0.19 0.94,0.361c0.272,0.171 0.491,0.402 0.656,0.693c0.164,0.291 0.247,0.659 0.247,1.102c0,0.76 -0.225,1.355 -0.675,1.786c-0.45,0.431 -1.073,0.646 -1.871,0.646l-4.522,0Z" style="fill:#0087ff;fill-rule:nonzero;"/><path d="M221.537,4.066l0,9.823l1.615,0l0,-4.37c0,-0.633 0.063,-1.194 0.19,-1.681c0.126,-0.488 0.329,-0.903 0.608,-1.245c0.278,-0.342 0.646,-0.602 1.102,-0.779c0.456,-0.177 1.007,-0.266 1.653,-0.266l0,-1.71c-0.874,-0.025 -1.596,0.152 -2.166,0.532c-0.57,0.38 -1.052,0.969 -1.444,1.767l-0.038,0l0,-2.071l-1.52,0Z" style="fill:#0087ff;fill-rule:nonzero;"/><path d="M228.757,8.987c0,-0.595 0.079,-1.124 0.237,-1.586c0.158,-0.463 0.377,-0.852 0.656,-1.169c0.278,-0.317 0.604,-0.557 0.978,-0.722c0.374,-0.165 0.77,-0.247 1.188,-0.247c0.418,0 0.813,0.082 1.187,0.247c0.374,0.165 0.7,0.405 0.979,0.722c0.278,0.317 0.497,0.706 0.655,1.169c0.158,0.462 0.238,0.991 0.238,1.586c0,0.595 -0.08,1.124 -0.238,1.586c-0.158,0.463 -0.377,0.849 -0.655,1.159c-0.279,0.311 -0.605,0.548 -0.979,0.713c-0.374,0.165 -0.769,0.247 -1.187,0.247c-0.418,0 -0.814,-0.082 -1.188,-0.247c-0.374,-0.165 -0.7,-0.402 -0.978,-0.713c-0.279,-0.31 -0.498,-0.696 -0.656,-1.159c-0.158,-0.462 -0.237,-0.991 -0.237,-1.586ZM227.047,8.987c0,0.722 0.101,1.393 0.304,2.014c0.202,0.621 0.506,1.162 0.912,1.624c0.405,0.463 0.905,0.824 1.501,1.083c0.595,0.26 1.279,0.39 2.052,0.39c0.785,0 1.472,-0.13 2.061,-0.39c0.589,-0.259 1.086,-0.62 1.492,-1.083c0.405,-0.462 0.709,-1.003 0.912,-1.624c0.202,-0.621 0.304,-1.292 0.304,-2.014c0,-0.722 -0.102,-1.397 -0.304,-2.024c-0.203,-0.627 -0.507,-1.171 -0.912,-1.634c-0.406,-0.462 -0.903,-0.826 -1.492,-1.092c-0.589,-0.266 -1.276,-0.399 -2.061,-0.399c-0.773,0 -1.457,0.133 -2.052,0.399c-0.596,0.266 -1.096,0.63 -1.501,1.092c-0.406,0.463 -0.71,1.007 -0.912,1.634c-0.203,0.627 -0.304,1.302 -0.304,2.024Z" style="fill:#0087ff;fill-rule:nonzero;"/><path d="M247.187,13.851c-0.279,0.165 -0.665,0.247 -1.159,0.247c-0.418,0 -0.751,-0.117 -0.998,-0.351c-0.247,-0.235 -0.37,-0.618 -0.37,-1.15c-0.444,0.532 -0.96,0.915 -1.549,1.15c-0.589,0.234 -1.225,0.351 -1.909,0.351c-0.444,0 -0.865,-0.051 -1.264,-0.152c-0.399,-0.101 -0.744,-0.26 -1.035,-0.475c-0.292,-0.215 -0.523,-0.497 -0.694,-0.846c-0.171,-0.348 -0.256,-0.769 -0.256,-1.263c0,-0.557 0.095,-1.013 0.285,-1.368c0.19,-0.355 0.44,-0.643 0.75,-0.865c0.31,-0.221 0.665,-0.389 1.064,-0.503c0.399,-0.114 0.808,-0.209 1.226,-0.285c0.443,-0.089 0.864,-0.155 1.263,-0.2c0.399,-0.044 0.751,-0.107 1.055,-0.19c0.304,-0.082 0.544,-0.202 0.722,-0.361c0.177,-0.158 0.266,-0.389 0.266,-0.693c0,-0.355 -0.067,-0.64 -0.2,-0.855c-0.133,-0.215 -0.304,-0.38 -0.513,-0.494c-0.209,-0.114 -0.443,-0.19 -0.703,-0.228c-0.26,-0.038 -0.516,-0.057 -0.769,-0.057c-0.684,0 -1.254,0.13 -1.71,0.389c-0.456,0.26 -0.703,0.751 -0.741,1.473l-1.615,0c0.025,-0.608 0.152,-1.121 0.38,-1.539c0.228,-0.418 0.532,-0.757 0.912,-1.017c0.38,-0.259 0.813,-0.446 1.301,-0.56c0.488,-0.114 1.01,-0.171 1.568,-0.171c0.443,0 0.883,0.032 1.32,0.095c0.437,0.063 0.833,0.193 1.188,0.389c0.354,0.197 0.639,0.472 0.855,0.827c0.215,0.355 0.323,0.817 0.323,1.387l0,5.054c0,0.38 0.022,0.659 0.066,0.836c0.044,0.177 0.193,0.266 0.447,0.266c0.139,0 0.304,-0.032 0.494,-0.095l0,1.254ZM244.565,8.816c-0.203,0.152 -0.469,0.263 -0.798,0.332c-0.33,0.07 -0.675,0.127 -1.036,0.171c-0.361,0.045 -0.725,0.095 -1.092,0.152c-0.368,0.058 -0.697,0.149 -0.988,0.276c-0.292,0.127 -0.529,0.307 -0.713,0.541c-0.184,0.235 -0.275,0.555 -0.275,0.96c0,0.266 0.053,0.491 0.161,0.674c0.108,0.184 0.247,0.333 0.418,0.447c0.171,0.114 0.371,0.196 0.599,0.247c0.228,0.051 0.468,0.076 0.722,0.076c0.532,0 0.988,-0.073 1.368,-0.219c0.38,-0.145 0.69,-0.329 0.931,-0.551c0.24,-0.221 0.418,-0.462 0.532,-0.722c0.114,-0.259 0.171,-0.503 0.171,-0.731l0,-1.653Z" style="fill:#0087ff;fill-rule:nonzero;"/><path d="M249.866,9.063c0,-0.481 0.05,-0.95 0.152,-1.406c0.101,-0.456 0.266,-0.861 0.494,-1.216c0.228,-0.355 0.532,-0.64 0.912,-0.855c0.38,-0.215 0.842,-0.323 1.387,-0.323c0.557,0 1.032,0.104 1.425,0.313c0.392,0.209 0.712,0.485 0.959,0.827c0.247,0.342 0.428,0.738 0.542,1.187c0.114,0.45 0.171,0.916 0.171,1.397c0,0.456 -0.054,0.906 -0.162,1.349c-0.108,0.443 -0.282,0.839 -0.522,1.187c-0.241,0.349 -0.551,0.631 -0.931,0.846c-0.38,0.215 -0.843,0.323 -1.387,0.323c-0.52,0 -0.973,-0.101 -1.359,-0.304c-0.386,-0.203 -0.703,-0.475 -0.95,-0.817c-0.247,-0.342 -0.431,-0.731 -0.551,-1.168c-0.12,-0.438 -0.18,-0.884 -0.18,-1.34ZM257.466,13.889l0,-13.566l-1.615,0l0,5.054l-0.038,0c-0.178,-0.291 -0.396,-0.535 -0.656,-0.732c-0.26,-0.196 -0.535,-0.354 -0.826,-0.475c-0.292,-0.12 -0.583,-0.205 -0.874,-0.256c-0.292,-0.051 -0.564,-0.076 -0.817,-0.076c-0.748,0 -1.403,0.136 -1.967,0.408c-0.564,0.273 -1.032,0.64 -1.406,1.102c-0.374,0.463 -0.652,1.004 -0.836,1.625c-0.184,0.621 -0.275,1.279 -0.275,1.976c0,0.697 0.095,1.355 0.285,1.976c0.19,0.621 0.471,1.165 0.845,1.634c0.374,0.469 0.842,0.842 1.406,1.121c0.564,0.279 1.226,0.418 1.986,0.418c0.684,0 1.311,-0.12 1.881,-0.361c0.57,-0.241 0.988,-0.633 1.254,-1.178l0.038,0l0,1.33l1.615,0Z" style="fill:#0087ff;fill-rule:nonzero;"/><path d="M109.826,394.323l0,13.566l8.987,0l0,-1.52l-7.182,0l0,-12.046l-1.805,0Z" style="fill:#0087ff;fill-rule:nonzero;"/><path d="M121.302,402.987c0,-0.595 0.079,-1.124 0.238,-1.587c0.158,-0.462 0.376,-0.851 0.655,-1.168c0.279,-0.317 0.605,-0.557 0.979,-0.722c0.373,-0.165 0.769,-0.247 1.187,-0.247c0.418,0 0.814,0.082 1.188,0.247c0.373,0.165 0.699,0.405 0.978,0.722c0.279,0.317 0.497,0.706 0.656,1.168c0.158,0.463 0.237,0.992 0.237,1.587c0,0.595 -0.079,1.124 -0.237,1.587c-0.159,0.462 -0.377,0.848 -0.656,1.159c-0.279,0.31 -0.605,0.547 -0.978,0.712c-0.374,0.165 -0.77,0.247 -1.188,0.247c-0.418,0 -0.814,-0.082 -1.187,-0.247c-0.374,-0.165 -0.7,-0.402 -0.979,-0.712c-0.279,-0.311 -0.497,-0.697 -0.655,-1.159c-0.159,-0.463 -0.238,-0.992 -0.238,-1.587ZM119.592,402.987c0,0.722 0.101,1.393 0.304,2.014c0.203,0.621 0.507,1.162 0.912,1.624c0.405,0.463 0.906,0.824 1.501,1.083c0.595,0.26 1.279,0.39 2.052,0.39c0.785,0 1.473,-0.13 2.062,-0.39c0.589,-0.259 1.086,-0.62 1.491,-1.083c0.405,-0.462 0.709,-1.003 0.912,-1.624c0.203,-0.621 0.304,-1.292 0.304,-2.014c0,-0.722 -0.101,-1.397 -0.304,-2.024c-0.203,-0.627 -0.507,-1.171 -0.912,-1.634c-0.405,-0.462 -0.902,-0.826 -1.491,-1.092c-0.589,-0.266 -1.277,-0.399 -2.062,-0.399c-0.773,0 -1.457,0.133 -2.052,0.399c-0.595,0.266 -1.096,0.63 -1.501,1.092c-0.405,0.463 -0.709,1.007 -0.912,1.635c-0.203,0.627 -0.304,1.301 -0.304,2.023Z" style="fill:#0087ff;fill-rule:nonzero;"/><path d="M140.758,407.889l3.135,-9.823l-1.672,0l-2.204,8.037l-0.038,0l-2.052,-8.037l-1.767,0l-1.976,8.037l-0.038,0l-2.223,-8.037l-1.786,0l3.154,9.823l1.748,0l1.976,-7.809l0.038,0l1.995,7.809l1.71,0Z" style="fill:#0087ff;fill-rule:nonzero;"/><path d="M150.98,394.323l0,13.566l8.987,0l0,-1.52l-7.182,0l0,-12.046l-1.805,0Z" style="fill:#0087ff;fill-rule:nonzero;"/><path d="M168.099,402.037l-5.643,0c0.025,-0.38 0.108,-0.738 0.247,-1.074c0.139,-0.335 0.329,-0.63 0.57,-0.883c0.241,-0.253 0.529,-0.453 0.865,-0.599c0.335,-0.145 0.712,-0.218 1.13,-0.218c0.405,0 0.776,0.073 1.112,0.218c0.335,0.146 0.627,0.342 0.874,0.589c0.247,0.247 0.443,0.542 0.589,0.884c0.145,0.342 0.231,0.703 0.256,1.083ZM169.657,404.773l-1.596,0c-0.139,0.646 -0.427,1.127 -0.864,1.444c-0.437,0.317 -0.998,0.475 -1.682,0.475c-0.532,0 -0.994,-0.089 -1.387,-0.266c-0.393,-0.177 -0.716,-0.415 -0.969,-0.713c-0.253,-0.297 -0.437,-0.639 -0.551,-1.026c-0.114,-0.386 -0.165,-0.794 -0.152,-1.225l7.353,0c0.025,-0.595 -0.028,-1.222 -0.161,-1.881c-0.133,-0.659 -0.374,-1.267 -0.722,-1.824c-0.349,-0.557 -0.811,-1.017 -1.387,-1.377c-0.577,-0.361 -1.302,-0.542 -2.176,-0.542c-0.671,0 -1.289,0.127 -1.852,0.38c-0.564,0.253 -1.052,0.608 -1.463,1.064c-0.412,0.456 -0.732,0.994 -0.96,1.615c-0.228,0.621 -0.342,1.305 -0.342,2.052c0.025,0.747 0.136,1.438 0.333,2.071c0.196,0.633 0.49,1.178 0.883,1.634c0.393,0.456 0.877,0.811 1.454,1.064c0.576,0.253 1.257,0.38 2.042,0.38c1.115,0 2.039,-0.279 2.774,-0.836c0.735,-0.557 1.21,-1.387 1.425,-2.489Z" style="fill:#0087ff;fill-rule:nonzero;"/><path d="M175.908,407.889l3.591,-9.823l-1.691,0l-2.679,8.189l-0.038,0l-2.755,-8.189l-1.805,0l3.648,9.823l1.729,0Z" style="fill:#0087ff;fill-rule:nonzero;"/><path d="M187.802,402.037l-5.643,0c0.025,-0.38 0.108,-0.738 0.247,-1.074c0.139,-0.335 0.329,-0.63 0.57,-0.883c0.241,-0.253 0.529,-0.453 0.865,-0.599c0.335,-0.145 0.712,-0.218 1.13,-0.218c0.405,0 0.776,0.073 1.112,0.218c0.335,0.146 0.627,0.342 0.874,0.589c0.247,0.247 0.443,0.542 0.589,0.884c0.145,0.342 0.231,0.703 0.256,1.083ZM189.36,404.773l-1.596,0c-0.139,0.646 -0.427,1.127 -0.864,1.444c-0.437,0.317 -0.998,0.475 -1.682,0.475c-0.532,0 -0.994,-0.089 -1.387,-0.266c-0.393,-0.177 -0.716,-0.415 -0.969,-0.713c-0.253,-0.297 -0.437,-0.639 -0.551,-1.026c-0.114,-0.386 -0.165,-0.794 -0.152,-1.225l7.353,0c0.025,-0.595 -0.028,-1.222 -0.161,-1.881c-0.133,-0.659 -0.374,-1.267 -0.722,-1.824c-0.349,-0.557 -0.811,-1.017 -1.387,-1.377c-0.577,-0.361 -1.302,-0.542 -2.176,-0.542c-0.671,0 -1.289,0.127 -1.852,0.38c-0.564,0.253 -1.052,0.608 -1.463,1.064c-0.412,0.456 -0.732,0.994 -0.96,1.615c-0.228,0.621 -0.342,1.305 -0.342,2.052c0.025,0.747 0.136,1.438 0.333,2.071c0.196,0.633 0.49,1.178 0.883,1.634c0.393,0.456 0.877,0.811 1.454,1.064c0.576,0.253 1.257,0.38 2.042,0.38c1.115,0 2.039,-0.279 2.774,-0.836c0.735,-0.557 1.21,-1.387 1.425,-2.489Z" style="fill:#0087ff;fill-rule:nonzero;"/><rect x="191.279" y="394.323" width="1.615" height="13.566" style="fill:#0087ff;fill-rule:nonzero;"/><path d="M199.468,394l-5.605,14.193l1.368,0l5.624,-14.193l-1.387,0Z" style="fill:#0087ff;fill-rule:nonzero;"/><path d="M201.976,394.323l0,13.566l1.71,0l0,-10.887l0.038,0l7.087,10.887l1.976,0l0,-13.566l-1.71,0l0,11.001l-0.038,0l-7.144,-11.001l-1.919,0Z" style="fill:#0087ff;fill-rule:nonzero;"/><path d="M224.149,407.851c-0.279,0.165 -0.665,0.247 -1.159,0.247c-0.418,0 -0.75,-0.117 -0.997,-0.351c-0.247,-0.235 -0.371,-0.618 -0.371,-1.15c-0.443,0.532 -0.959,0.915 -1.548,1.149c-0.589,0.235 -1.226,0.352 -1.91,0.352c-0.443,0 -0.864,-0.051 -1.263,-0.152c-0.399,-0.101 -0.745,-0.26 -1.036,-0.475c-0.291,-0.215 -0.522,-0.497 -0.693,-0.846c-0.171,-0.348 -0.257,-0.769 -0.257,-1.263c0,-0.557 0.095,-1.013 0.285,-1.368c0.19,-0.355 0.44,-0.643 0.751,-0.865c0.31,-0.221 0.665,-0.389 1.064,-0.503c0.399,-0.114 0.807,-0.209 1.225,-0.285c0.443,-0.089 0.865,-0.155 1.264,-0.2c0.399,-0.044 0.75,-0.107 1.054,-0.19c0.304,-0.082 0.545,-0.202 0.722,-0.361c0.177,-0.158 0.266,-0.389 0.266,-0.693c0,-0.355 -0.066,-0.64 -0.199,-0.855c-0.133,-0.215 -0.304,-0.38 -0.513,-0.494c-0.209,-0.114 -0.444,-0.19 -0.703,-0.228c-0.26,-0.038 -0.517,-0.057 -0.77,-0.057c-0.684,0 -1.254,0.13 -1.71,0.39c-0.456,0.259 -0.703,0.75 -0.741,1.472l-1.615,0c0.025,-0.608 0.152,-1.121 0.38,-1.539c0.228,-0.418 0.532,-0.757 0.912,-1.016c0.38,-0.26 0.814,-0.447 1.302,-0.561c0.487,-0.114 1.01,-0.171 1.567,-0.171c0.443,0 0.884,0.032 1.321,0.095c0.437,0.063 0.832,0.193 1.187,0.389c0.355,0.197 0.64,0.472 0.855,0.827c0.215,0.355 0.323,0.817 0.323,1.387l0,5.054c0,0.38 0.022,0.659 0.067,0.836c0.044,0.177 0.193,0.266 0.446,0.266c0.139,0 0.304,-0.032 0.494,-0.095l0,1.254ZM221.527,402.816c-0.203,0.152 -0.469,0.263 -0.798,0.332c-0.329,0.07 -0.674,0.127 -1.035,0.171c-0.361,0.045 -0.726,0.096 -1.093,0.152c-0.367,0.058 -0.697,0.149 -0.988,0.276c-0.291,0.127 -0.529,0.307 -0.712,0.541c-0.184,0.235 -0.276,0.555 -0.276,0.96c0,0.266 0.054,0.491 0.162,0.675c0.107,0.183 0.247,0.332 0.418,0.446c0.171,0.114 0.37,0.196 0.598,0.247c0.228,0.051 0.469,0.076 0.722,0.076c0.532,0 0.988,-0.073 1.368,-0.219c0.38,-0.145 0.69,-0.329 0.931,-0.551c0.241,-0.221 0.418,-0.462 0.532,-0.722c0.114,-0.259 0.171,-0.503 0.171,-0.731l0,-1.653Z" style="fill:#0087ff;fill-rule:nonzero;"/><path d="M225.593,398.066l0,9.823l1.615,0l0,-4.37c0,-0.633 0.063,-1.194 0.19,-1.681c0.127,-0.488 0.329,-0.903 0.608,-1.245c0.279,-0.342 0.646,-0.602 1.102,-0.779c0.456,-0.177 1.007,-0.266 1.653,-0.266l0,-1.71c-0.874,-0.025 -1.596,0.152 -2.166,0.532c-0.57,0.38 -1.051,0.969 -1.444,1.767l-0.038,0l0,-2.071l-1.52,0Z" style="fill:#0087ff;fill-rule:nonzero;"/><path d="M231.92,398.066l0,9.823l1.615,0l0,-4.37c0,-0.633 0.063,-1.194 0.19,-1.681c0.127,-0.488 0.329,-0.903 0.608,-1.245c0.279,-0.342 0.646,-0.602 1.102,-0.779c0.456,-0.177 1.007,-0.266 1.653,-0.266l0,-1.71c-0.874,-0.025 -1.596,0.152 -2.166,0.532c-0.57,0.38 -1.051,0.969 -1.444,1.767l-0.038,0l0,-2.071l-1.52,0Z" style="fill:#0087ff;fill-rule:nonzero;"/><path d="M239.14,402.987c0,-0.595 0.079,-1.124 0.238,-1.587c0.158,-0.462 0.376,-0.851 0.655,-1.168c0.279,-0.317 0.605,-0.557 0.979,-0.722c0.373,-0.165 0.769,-0.247 1.187,-0.247c0.418,0 0.814,0.082 1.188,0.247c0.373,0.165 0.699,0.405 0.978,0.722c0.279,0.317 0.497,0.706 0.656,1.168c0.158,0.463 0.237,0.992 0.237,1.587c0,0.595 -0.079,1.124 -0.237,1.587c-0.159,0.462 -0.377,0.848 -0.656,1.159c-0.279,0.31 -0.605,0.547 -0.978,0.712c-0.374,0.165 -0.77,0.247 -1.188,0.247c-0.418,0 -0.814,-0.082 -1.187,-0.247c-0.374,-0.165 -0.7,-0.402 -0.979,-0.712c-0.279,-0.311 -0.497,-0.697 -0.655,-1.159c-0.159,-0.463 -0.238,-0.992 -0.238,-1.587ZM237.43,402.987c0,0.722 0.101,1.393 0.304,2.014c0.203,0.621 0.507,1.162 0.912,1.624c0.405,0.463 0.906,0.824 1.501,1.083c0.595,0.26 1.279,0.39 2.052,0.39c0.785,0 1.473,-0.13 2.062,-0.39c0.589,-0.259 1.086,-0.62 1.491,-1.083c0.405,-0.462 0.709,-1.003 0.912,-1.624c0.203,-0.621 0.304,-1.292 0.304,-2.014c0,-0.722 -0.101,-1.397 -0.304,-2.024c-0.203,-0.627 -0.507,-1.171 -0.912,-1.634c-0.405,-0.462 -0.902,-0.826 -1.491,-1.092c-0.589,-0.266 -1.277,-0.399 -2.062,-0.399c-0.773,0 -1.457,0.133 -2.052,0.399c-0.595,0.266 -1.096,0.63 -1.501,1.092c-0.405,0.463 -0.709,1.007 -0.912,1.635c-0.203,0.627 -0.304,1.301 -0.304,2.023Z" style="fill:#0087ff;fill-rule:nonzero;"/><path d="M258.596,407.889l3.135,-9.823l-1.672,0l-2.204,8.037l-0.038,0l-2.052,-8.037l-1.767,0l-1.976,8.037l-0.038,0l-2.223,-8.037l-1.786,0l3.154,9.823l1.748,0l1.976,-7.809l0.038,0l1.995,7.809l1.71,0Z" style="fill:#0087ff;fill-rule:nonzero;"/></g></svg>